<svg xmlns="http://www.w3.org/2000/svg" viewBox="0 0 355 533" fill="var(--color--neutral);">
  <path d="M0 0h355v1H0zM355 13v-1H0v1h355zM134 27c9 1 18 3 28 2l28-3h21c12 2 24 4 36 3 12 0 23-3 35-4h73v-2h-75l-33 4-34-3h-17l-42 3-39-4H0v2h110l24 2zM128 41l14 5c6 3 13 5 20 4s13-4 19-6a94 94 0 0 1 16-4l4-1 12 2c13 4 27 8 40 5 13-2 25-7 38-9h64v-2h-64c-13 1-25 6-38 8-14 2-27-1-40-4a49 49 0 0 0-32 2c-10 3-20 6-31 4l-8-2-10-3a94 94 0 0 0-30-5H0v2h102c9 0 18 1 26 4z" />
  <path d="M85 49h16c4 1 8 0 13 2l10 4c11 6 23 21 39 18 10-3 17-11 25-16 14-8 28 1 41 4 17 4 32-2 46-7 6-2 12-4 18-4 10-2 51-1 62-1v-2h-62c-17 2-30 11-47 13-10 0-18-2-27-5-8-3-17-6-27-3l-4 2c-10 5-21 18-35 14-7-2-13-7-19-10l-6-4c-6-4-13-6-21-7H0v2h85z" />
  <path d="M103 62c12 0 21 8 30 13 5 4 11 6 17 9 5 2 11 6 17 4 5-1 7-5 10-7l14-11c13-7 27 3 40 6 18 4 35-8 51-13l9-1c11-2 22-1 32-1h32v-3l-61 1-13 2c-17 5-34 16-53 11-8-2-16-7-25-8-10 0-16 6-23 11l-3 3c-4 2-7 6-11 7-6 2-12-1-17-3l-16-9-15-10c-5-3-11-4-17-4L0 58v3a63453 63453 0 0 1 103 1z" />
  <path d="M99 75c11 1 20 4 29 8l29 12c6 2 15 7 20 0l3-4 4-4c3-3 7-5 11-6l5-1c8 0 14 5 19 9 6 3 12 8 19 9 5 1 10-1 13-4l12-9c8-6 16-11 26-12 22-2 44 0 66 0v-3h-34c-12-1-24-1-35 1-10 2-18 6-25 11-6 4-13 9-21 10-14 0-23-12-36-15-10-2-20 6-25 12l-6 7c-6 3-14-2-18-4l-21-9-18-8c-7-3-14-3-21-4l-24-1H0v3h64l35 2z" />
  <path d="M45 85c13 0 26 0 39 2l39 4c12 3 23 6 34 11 8 3 18 12 25 2l1-3c3-3 5-6 9-8 13-4 26 12 32 19a143 143 0 0 1 8 9l6 8c1 2 3 6 7 7 6 3 13-17 14-21 4-7 7-15 13-21 2-3 5-5 8-6l7-3c11-2 23 0 35 0h33v-3h-58c-6 0-12 0-17 2a36 36 0 0 0-15 14l-4 7-9 15-2 3c-4 3-7 3-11 0l-3-3-10-11-14-13c-5-4-11-8-18-6l-5 2-5 4-3 4-4 6c-4 1-7 0-10-1l-20-10-24-6c-11-3-23-4-34-5l-35-2H0v3h45z" />
  <path d="M5 97h53l34 3 36 3a81 81 0 0 1 38 13c3 2 6 4 10 4 14 3 9-18 24-15 7 2 12 8 16 12 6 6 10 13 13 20 3 6 5 13 9 19 2 4 8 15 15 9 5-4 7-12 8-18l7-24c2-7 5-14 11-20 6-5 13-6 21-7l32 1h23v-4h-61c-14 1-21 11-25 20-5 11-7 23-11 34l-4 9c-1 2-2 6-6 6-5 0-9-9-10-12-6-11-10-23-20-34-4-5-9-10-15-13-8-4-13 0-16 6-2 4-5 9-12 8-8-1-14-7-20-10-14-7-31-8-47-9l-54-5H0v4h5z" />
  <path d="M98 112c14 1 29 0 42 5 12 3 21 10 31 15 5 2 11 4 16 1 4-3 6-7 8-11 6-10 18 4 22 9 11 13 13 29 25 42l3 3c7 5 12 0 16-5l2-4c6-13 7-28 14-42a49 49 0 0 1 4-6l11-9 13-1 50-1v-3h-37c-12 0-26-2-35 7a34 34 0 0 0-8 11c-7 13-8 27-13 40-1 4-4 11-10 13-6 1-10-5-12-8-5-7-7-14-11-20l-6-13a61 61 0 0 0-7-10c-4-4-14-15-21-9l-1 2c-3 3-4 8-8 11s-10 1-15-1c-11-6-20-13-34-16l-22-2-23-2c-16-2-31-3-47-3H0v3h54c15 0 29 3 44 4z" />
  <path d="M110 123c13 1 26 4 38 10 8 4 16 10 26 13 5 1 10 1 15-1l10-8 2-2c6-4 15 6 17 10l5 6 12 21 6 7c3 3 7 8 12 7s8-5 11-8c11-13 12-29 20-42l2-3c3-3 6-6 11-8a65 65 0 0 1 18-4c13-2 27-1 40-1v-4a6479 6479 0 0 0-56 3l-9 4c-4 3-7 7-10 12-5 11-7 23-13 34l-1 2c-3 5-7 13-14 13-8 0-12-8-15-12l-13-23c-3-5-5-9-9-12-3-3-7-9-12-8-5 0-7 5-9 8s-5 5-10 6c-6 1-11-1-16-3-10-5-18-11-28-15-11-4-23-5-34-6l-39-2-67-1v4h62l48 3z" />
  <path d="M52 132a147 147 0 0 1 21 2c8 2 15 3 23 3l24-1c14 1 25 7 37 12 9 4 18 8 28 7l15-3c5-1 9-1 14 1 8 6 11 15 16 22 5 6 10 14 18 19 5 3 9 0 12-3a163 163 0 0 0 13-15c5-6 9-14 13-21 4-6 8-12 15-16a50 50 0 0 1 20-6c11-2 23-1 34-1v-4h-28a79 79 0 0 0-16 2c-5 1-10 3-14 6-7 5-10 10-13 16l-11 21-4 5c-4 5-9 11-15 13h-5c-4-1-6-4-9-7l-9-11c-5-8-8-18-17-24-3-3-8-4-13-2-10 5-20 7-32 3l-5-2c-14-5-26-14-42-16l-27-1-27-2c-22-2-45-1-68-1v4h52z" />
  <path d="M47 144c11 1 21 5 30 10 5 2 11 5 16 5 7 0 12-2 17-4l7-3 7-3c12-3 26 5 36 9l3 1c8 3 17 7 27 7 7 0 16-2 22 2l2 2c7 5 12 13 17 19l12 14 4 9c4 3 8 0 10-3 3-5 5-10 9-14l1-2 16-18c6-7 11-15 18-21 6-5 12-8 19-9 11-2 24-1 35-1v-4h-31a46 46 0 0 0-10 2l-11 5c-9 7-14 16-21 25l-13 15-12 15-2 2c-3 3-6 1-8-2l-12-13-6-8-4-5c-3-4-6-9-10-12a21 21 0 0 0-4-3c-7-3-15 1-23 1s-16-2-23-5l-17-7c-9-4-19-7-29-5l-10 3c-9 2-18 2-27 0s-16-6-25-7a1693 1693 0 0 1-57-1v4h47z" />
  <path d="M47 157l7 2c7 3 13 7 18 12l10 10c2 2 5 5 9 6 7 2 13-4 17-8 6-6 12-13 21-17 7-3 17-2 24 2l5 2 21 9 21 6a60 60 0 0 1 19 15 594 594 0 0 0 11 11c7 5 9 13 11 20 1 3 4 13 11 9 4-3 5-8 7-12a161 161 0 0 1 19-35l13-14c8-8 18-18 33-19h31v-5c-11 0-23-1-34 1-6 1-12 4-16 7-7 5-12 11-17 16a858 858 0 0 0-20 24l-11 21c-1 3-5 11-10 7-3-2-4-7-5-10l-5-11-9-8-4-5a162 162 0 0 0-13-13c-5-4-10-6-17-7l-18-3-17-7c-10-5-23-11-35-4l-16 11c-6 4-13 8-21 4-7-3-12-8-18-13l-5-3c-5-3-12-6-19-6l-23-1H0v5h37l10 1z" />
  <path d="M40 168a31 31 0 0 1 20 8c7 6 11 13 16 19l8 12c3 2 6 5 10 5 7 0 11-8 14-12l14-17c5-5 11-9 18-10 5-1 9 0 13 2l12 5 20 10 18 12c8 4 12 11 18 16l10 8 5 12c2 4 5 10 11 11 6 2 10-3 12-7l7-19a110 110 0 0 1 12-24 74 74 0 0 1 29-26 45 45 0 0 1 19-5h29v-5h-31c-7 0-12 3-17 6l-13 8a112 112 0 0 0-19 21l-4 7c-5 9-7 18-11 26-1 5-5 18-14 14-8-4-9-15-12-21-3-7-12-11-17-18l-8-7c-7-6-15-11-24-15l-13-5-12-6-6-3c-4-2-10-3-15-3-6 1-10 4-13 7-8 6-14 13-20 20l-4 5c-2 2-5 5-10 4-3 0-6-3-8-5l-16-20a63 63 0 0 0-12-10 37 37 0 0 0-9-4 32 32 0 0 0-10-1H0v5h40z" />
  <path d="M40 180c13 1 21 10 28 18 6 9 11 18 18 26 2 2 5 6 10 5 4-1 6-5 8-7 9-12 14-28 32-33 2-1 5-2 8-1l10 3 5 2 24 12c7 3 15 5 22 9 5 3 8 9 12 13l11 15c5 7 13 16 25 14 9-1 12-11 14-17 3-11 7-23 13-33 3-4 5-8 9-11a48 48 0 0 1 13-11c8-3 17-4 25-4h28v-5c-19 0-41-3-57 8-11 7-17 16-22 26-6 10-8 20-12 30-2 6-5 15-15 15s-15-10-19-16c-2-5-6-8-10-12l-10-12-7-5-19-10-18-10-14-6c-4-2-8-3-12-2l-4 1c-12 5-19 14-25 22-4 6-13 26-24 15l-4-5-6-8c-5-8-11-17-19-23-3-3-8-6-13-7-7-2-15-1-22-1H0v5h40z" />
  <path d="M24 192c7-1 15-1 22 1 8 2 14 8 18 13l15 20a113 113 0 0 0 10 13c7 7 14-2 17-7 5-7 8-14 14-20 4-3 8-6 13-6s8 2 11 5c6 5 10 12 20 11s19-4 29-3c5 0 9 2 12 4 8 7 10 17 15 25 5 7 15 11 25 13 9 2 17 0 22-7 4-6 6-13 8-19a100 100 0 0 1 13-29l3-4 11-8 8-2h45v-6a4736 4736 0 0 1-48 2l-9 4c-5 3-8 7-11 11l-5 8c-6 10-9 22-13 33-2 6-6 15-16 16-12 1-23-7-29-14l-9-15c-3-4-6-9-11-13l-3-1c-6-3-12-3-18-4-8-1-18-3-26-6-5-2-9-6-15-8-8-3-17 2-22 7-6 6-9 13-13 20-2 3-5 10-11 11-7 1-11-7-14-11l-7-11c-3-4-5-8-9-11l-10-11c-6-5-15-7-23-7H0v6h24z" />
  <path d="M39 204c6 0 12 2 17 6 8 6 13 14 19 21l9 13c2 3 4 7 8 9l6 1c4-2 6-5 8-9l9-14c3-4 7-10 14-9s10 8 13 12c3 5 5 12 10 16 6 3 14-4 18-7l10-8 4-1c4-2 9-4 14-2 9 4 9 14 14 20 4 7 14 9 22 11 6 2 11 4 17 4 5 0 10-1 14-4 8-6 12-14 15-22 3-9 6-18 13-27l6-6c3-2 6-4 11-4l23-1h22v-5h-44l-12 4c-5 3-8 8-11 12l-3 6-13 31c-3 6-9 12-18 14l-15-3-16-5c-8-4-10-11-12-17s-5-12-13-14-15 1-21 5l-9 5c-5 2-11 4-16 0s-7-9-10-13l-5-5c-11-9-22 6-25 13-3 4-9 21-19 17-3-1-5-4-7-6l-8-10-6-10a110 110 0 0 0-13-15c-6-5-14-9-23-9H0v5l39 1z" />
  <path d="M52 219c19 11 24 30 38 43 2 2 5 4 8 4 4-1 6-4 8-6l7-11c2-4 8-15 16-12l7 7 2 5 4 9c1 4 2 11 8 13s10-5 13-8l9-9c4-5 12-13 21-12 9 2 10 12 14 17 3 4 8 6 12 7l19 5c11 3 22 2 31-5 15-12 17-30 30-44l5-4c3-2 7-3 11-3h40v-5h-40c-6 0-12 1-16 5-9 9-12 20-18 30-6 14-19 29-41 24l-19-6c-5-1-10-4-12-7-4-6-5-16-14-18-5-2-9 0-13 3-7 4-12 10-18 15-4 3-11 9-15 3l-4-5c-3-6-5-13-10-19-2-2-5-6-9-5-4 0-7 3-9 6l-11 16c-2 3-5 9-10 8-6 0-10-7-12-10l-6-8-3-4-9-13a45 45 0 0 0-21-14l-8-1H0v5h37c5 0 11 2 15 4z" />
  <path d="M38 227c10 1 18 5 24 11a90 90 0 0 1 12 15l4 5c3 4 15 26 24 20l4-4c4-6 7-13 12-18 2-2 5-5 9-4 3 1 4 4 6 6l2 4 9 23c3 4 7 7 12 2 7-7 11-17 18-25 3-3 5-6 9-8 8-5 15 4 19 8 2 3 4 5 8 7l18 4 20 6c6 1 12 0 17-4 10-6 17-14 23-23 5-8 10-17 19-22l3-1c7-2 15-2 22-2h23v-6h-34a166 166 0 0 0-13 2l-2 1-8 7c-8 9-12 20-20 30-7 7-16 16-28 15l-19-5-17-4c-8-2-11-8-15-14-4-4-9-8-16-4a319 319 0 0 0-18 19l-8 9c-1 2-4 5-8 3-3-1-4-3-5-6l-2-3-3-9-1-4-7-11c0-1-1-2-3-2-5-2-9 2-11 5l-10 15-7 7c-8 3-15-9-18-13-5-8-10-16-17-23-5-6-12-12-22-14l-21-1H0v6h38z" />
  <path d="M43 239l12 5c5 3 10 8 14 13l20 28c2 2 10 14 15 8l1-2 4-8 8-11c2-2 6-6 11-3 3 2 5 7 6 10 3 9 5 18 12 26 4 5 9 1 11-3l9-15a182 182 0 0 1 4-7c3-5 6-11 12-14 7-4 13 2 18 5l5 3c8 4 17 3 26 5l18 7c5 3 10 3 15-1l13-13 14-14c6-7 13-14 24-17 13-3 27-2 40-2v-6h-25c-6 0-13 0-18 2l-4 1c-10 6-15 15-21 22l-12 13c-5 4-9 9-15 11s-13 0-19-2l-18-5c-6-1-12-2-17-5l-13-10c-8-6-14 2-18 7l-3 3-12 19c-1 3-3 6-6 8-6 5-11-4-13-8l-3-10-2-5-6-12c-9-10-21 15-24 19l-2 2c-1 2-4 4-7 3s-5-4-7-6l-13-18a250 250 0 0 0-12-15c-7-7-15-14-28-14H0v6h43z" />
  <path d="M51 253l3 2c5 2 8 6 12 9 9 10 15 22 22 32l7 11 5 6c1 1 3 3 5 1l2-4 2-4 4-13c2-2 4-6 8-7 4-2 7 0 9 3 4 5 5 11 7 16 2 4 9 22 18 16 4-3 6-8 8-12l2-4 8-14 2-3 7-7c4-2 9-1 13 0l15 2c8 0 15 0 21 2 7 3 12 6 16 10 3 3 4 6 8 8 5 1 7-2 9-5l6-7c5-9 13-17 22-25 7-6 15-12 26-14l17-1h20v-6h-20l-17 1c-16 2-26 15-35 24l-16 17c-3 3-7 10-14 7-6-4-11-8-18-11l-12-3h-13l-5-2-7-3c-6-2-12-5-17-2s-7 8-10 12l-2 3-9 17-1 3c-2 2-4 7-9 6-4 0-6-4-8-7-4-9-6-19-12-27-1-3-3-5-7-5-4 1-6 4-7 6a40 40 0 0 0-5 6l-5 13c-2 3-4 5-8 3-3-2-5-6-6-9l-9-13-12-17c-5-6-11-13-20-17-4-2-8-2-13-2H0v6h38l13 2z" />
  <path d="M47 264c9 2 15 8 20 14l16 23 14 24c2 2 7 14 12 9 3-4 3-9 4-13l3-12 1-2 4-4c6-3 12 9 13 11l8 16c2 3 5 7 10 6 5 0 9-4 11-7 4-4 7-10 10-15 5-7 9-15 19-19 5-3 12-4 18-5 7-1 14-1 20 1l10 8 4 8c2 5 1 10 4 14 4 5 11-2 14-5 6-6 10-14 14-22 6-10 15-19 26-25 15-9 36-6 53-6v-7h-20l-17 1c-10 2-18 7-25 13-8 6-15 13-20 22l-3 4-8 12c-2 2-4 4-7 3l-3-2c-4-5-6-11-12-15-5-5-12-8-20-9l-16 1c-6 0-11 0-17 2l-5 2-5 4-6 10-4 7-4 8-5 7c-8 7-14-2-17-7l-7-15-3-5-4-5c-1-1-4-2-6-1l-4 4-2 3c-3 5-3 10-5 15 0 2-1 8-5 9-5 0-9-9-10-12l-8-11-13-21c-4-6-9-13-17-18a31 31 0 0 0-19-6H0v7h37l10 1z" />
  <path d="M25 275l17 1c4 0 8 1 11 3 11 6 18 18 24 27l7 10 17 30c2 2 5 9 9 9 6 0 6-9 6-12l2-12c1-2 2-9 6-9 5-1 8 5 9 7l8 13c4 6 10 8 18 5 7-3 12-8 16-14l10-15 4-5c5-8 12-14 23-17 5-1 10-1 15 1a16 16 0 0 1 6 5c8 9 3 22 2 32l1 7c3 6 13-2 16-4a94 94 0 0 0 23-27l5-9c6-9 14-19 26-23 8-2 16-2 24-2l25-1v-7h-23c-11 0-23 1-32 6a61 61 0 0 0-23 25l-11 18c-3 4-22 23-24 9-1-11 2-24-12-32l-6-2c-8-2-19 1-26 5l-6 3c-6 5-10 11-14 18l-5 7c-4 6-18 24-28 14l-8-12c-1-3-10-23-17-15l-4 10-2 10-3 9c-2 5-7 0-8-2a634 634 0 0 0-17-28c-6-9-12-19-20-28-6-8-14-15-26-15H0v7h25z" />
  <path d="M23 287l20 4a35 35 0 0 1 16 8c8 8 14 17 20 26l17 26 9 13 5 7c5 5 9-3 10-6l2-12c1-3 1-7 4-9 4-4 9 4 10 6l7 7c5 2 9 1 14 0 8-2 16-6 20-12 6-7 9-14 14-21 4-6 9-12 16-17 4-2 10-5 15-3 4 1 6 4 7 7v10l-1 6-2 8-3 18c0 3 0 8 4 9 5 1 10-3 14-5a152 152 0 0 0 35-38l13-17 4-3c3-3 7-5 12-6l17-2 33-4v-7l-35 3c-6 0-12 0-18 2a43 43 0 0 0-17 14l-2 3-10 14a139 139 0 0 1-25 28c-3 3-13 11-17 5-2-2-1-6-1-8l1-8 3-18c0-5-1-10-6-14s-13-3-19 0c-8 3-13 8-17 13l-11 17c-5 9-13 18-26 21-10 3-15-6-19-11-2-4-4-9-8-11-4-1-6 3-7 5l-3 17c0 2-1 9-4 10-5 2-9-5-11-8l-9-14-7-12-13-21-4-6c-4-5-8-10-14-14-5-4-12-6-19-6a182 182 0 0 0-37-1v7a4783 4783 0 0 1 23 0z" />
  <path d="M25 300c13 3 25 9 34 17 8 8 15 18 21 27l19 24 8 12c2 3 5 6 10 5 7-2 9-11 11-16 1-2 3-5 7-5l8 2 8-1 15-3c4-1 7-2 10-5 7-6 11-15 16-22l11-14c3-2 9-7 14-5 7 2 2 16 1 21l-5 25c0 4-1 9 2 13 4 6 12 1 16-2l22-17c9-9 16-18 23-28 6-7 12-16 22-19 9-3 18-3 27-5l30-5v-7l-45 6a34 34 0 0 0-25 13c-9 11-16 22-26 33l-15 13c-5 4-10 9-16 11-11 4-9-13-8-17 0-6 2-11 3-17l2-8c1-5 3-11-1-16-5-6-14-1-19 3-7 5-11 12-16 18-4 7-7 15-14 21a51 51 0 0 1-29 9c-6-1-9-5-13-8-4-4-6-1-7 3-1 3-6 29-16 20-3-2-4-6-6-9l-10-13-19-28a155 155 0 0 0-12-16c-5-5-11-10-19-13l-21-5-23-1v8l25 1z" />
  <path d="M16 311c8 1 15 3 21 7a96 96 0 0 1 23 17l21 25 11 11c3 4 7 7 8 11 1 3 1 6 4 9l8 2 7 2c5 0 8-4 11-7 3-4 7-7 12-10 6-4 13-7 22-8 3 0 7 0 11-2 3-1 5-3 7-6l11-17c3-4 6-9 12-10 5 0 3 11 2 13l-1 12c0 6-6 35 10 30 12-4 20-11 28-18 10-7 18-16 25-24l10-13c5-5 10-11 17-14l7-2 27-4 25-4v-8l-28 5-13 2-14 2-9 5-6 6c-11 10-18 22-29 33l-18 15c-5 5-11 9-18 11-15 5-9-28-8-33 2-7 4-14 4-21 0-2 0-5-2-6h-4l-8 5-7 8-14 21c-2 3-4 5-7 6-3 2-7 2-11 3l-18 5c-5 1-10 0-13 3-4 3-5 8-8 11s-7 5-12 4-6-4-8-7c-4-9-12-15-18-23l-19-26-9-10a80 80 0 0 0-45-19 110 110 0 0 0-13 0v7h8l8 1z" />
  <path d="M27 324c27 9 39 32 57 49 4 4 9 8 10 13 1 4-1 11 6 13l8 2c2 0 4 2 6 4 5 4 11 3 16-1 8-6 12-14 21-19 4-3 10-5 15-6 5 0 11 0 15-3l7-10c2-2 5-7 8-5 3 1 2 6 2 8v8l1 15c1 3 1 5 4 7 2 2 6 1 9 0a121 121 0 0 0 47-29l19-22c4-6 9-12 17-16 8-5 18-5 28-6l32-4v-7l-25 4-28 3c-9 2-15 8-20 13l-10 13-7 9a151 151 0 0 1-52 36c-7 2-9-2-10-7v-8l1-23v-7c0-2-1-4-3-5-5 0-7 5-9 8-3 5-6 11-10 15l-2 3c-5 4-11 4-17 4-7 1-13 3-18 7l-12 11c-3 3-6 7-11 8l-8-2-8-2c-6-2-7-5-8-9 0-4-2-8-5-11l-13-13-22-26c-9-8-20-16-33-20l-10-1-15-1v8h12l15 2z" />
  <path d="M26 335l5 1c10 3 19 10 26 17l12 13 12 12c3 4 5 8 5 13s1 9 3 13 5 8 10 9l8-1c2 0 3 2 5 3 3 4 6 13 14 10 4-2 7-6 9-8l10-13 11-10c3-2 7-5 12-5 4-1 9 1 12-1 3-1 4-5 7-6 3 0 4 3 4 5l1 4c1 4 1 9 3 13 2 5 7 7 13 5 5-1 9-4 12-6l15-7c5-1 9-2 13-5a58 58 0 0 0 14-12 176 176 0 0 0 13-15c7-8 14-20 27-25 8-3 16-3 25-4l28-1v-8c-12 0-23 3-35 4-7 0-14 0-20 2s-10 6-13 10l-6 6-18 22c-7 6-13 13-22 18l-13 6-15 7c-6 2-12 2-15-3-3-6-2-12-2-17v-4c0-2 1-8-3-9-5-1-7 6-9 8-3 4-8 6-14 6l-18 6c-9 7-14 16-24 23-5 4-11 0-15-4l-6-4H97c-7-3-5-12-6-17s-5-8-8-12l-12-12c-12-14-25-29-46-34a44 44 0 0 0-9-2H0v8c9 0 18-1 26 1z" />
  <path d="M25 347c5 0 9 2 13 3l20 14 14 17c4 5 4 12 6 18 1 6 3 11 6 17l7 8 5 8c1 2 3 3 7 2 2 0 5-1 7 1 6 3 6 10 11 14 6 3 11-4 13-7 7-11 11-23 19-32 4-4 7-9 13-11 5-2 10 2 16 1 5-1 6 5 6 8 2 6 6 10 8 15 1 3 2 8 6 8 4-1 6-7 8-9 6-9 15-19 30-17 12 2 20-4 26-12l15-20a175 175 0 0 1 12-13c5-5 10-8 18-10 14-4 29-4 44-4v-8a572 572 0 0 0-29 0c-10 1-21 2-29 7s-12 12-18 18l-15 19c-4 4-8 9-14 13-7 4-16 3-23 6l-3 2-14 10c-5 2-10 1-13-2-5-3-5-9-6-14l-2-7c-2-3-4-2-6 0-3 2-7 2-11 1-5 0-9 1-13 3-7 5-12 11-16 16l-10 15c-3 3-6 8-11 7s-7-5-8-8c-2-2-3-6-7-7l-5 1-7-2c-4-3-7-7-9-11l-3-14c0-5-2-9-5-13-6-8-15-17-23-24s-18-14-29-16H0v8h11l14 1z" />
  <path d="M35 364c13 6 24 17 29 29 5 11 4 25 15 34 11 8 12 20 16 31 0 2 3 9 7 6 2-2 3-8 7-7s6 5 7 8l5 18 4 15c1 3 4 6 7 3s4-6 5-10l8-15 12-16c3-5 5-11 6-17s1-12 3-17c1-4 1-7 4-10 8-8 15 9 16 13l4 18c0 2-1 13 4 11 4-3 7-9 9-13l7-15c4-6 7-12 14-16 9-5 14 1 21 4 7 4 16 3 22-2 6-4 8-10 11-15l4-6a98 98 0 0 1 26-27l10-6c12-4 25-4 37-4v-9h-10c-13 0-26 1-37 6l-7 4a60 60 0 0 0-12 10 142 142 0 0 0-15 20l-6 8c-3 4-5 9-10 11-6 2-12 2-17 0l-5-1c-11-3-18 7-22 12l-9 14c-1 2-3 8-7 6-3-1-3-5-3-7l-5-13c-2-4-2-9-5-13l-9-3c-3-1-6-2-9 0l-6 4-3 4c-10 13-14 28-23 41-2 3-7 10-12 7-5-4-6-11-10-15-2-2-4-4-8-3-3 1-5 3-8 0l-4-8-5-9c-4-5-9-9-11-15l-4-19c-4-12-14-22-25-30l-6-3c-6-4-13-6-21-7l-21-1v9h5c10 0 21 1 30 6z" />
  <path d="M11 370l5 1a47 47 0 0 1 20 11c9 7 15 16 19 25l7 15c1 4 3 9 7 13l4 2 4 1c9 5 10 15 12 22l5 27c0 2 1 6 3 7 3 1 4-3 5-5 1-4 3-8 6-11 3-4 5-1 6 2 4 10 5 19 7 29a177 177 0 0 0 6 19c1 2 3 5 6 5s5-2 6-4l4-8 5-12c5-17 6-38 25-49 6-4 5 4 5 6 2 5 9 2 12 0 10-7 15-18 20-28 3-6 7-17 18-20 9-2 14 8 18 12 3 3 8 6 13 5 6 0 12-4 15-7 8-8 12-18 17-26a85 85 0 0 1 8-10 68 68 0 0 1 32-21c8-2 16-1 24-1v-9h-3l-20 1c-8 1-15 4-21 8a97 97 0 0 0-28 29c-6 9-17 35-36 23-7-4-13-13-23-7-7 5-11 12-14 19l-10 18c-1 3-7 11-11 9-3-1-2-7-2-9 1-6-2-12-3-19-1-3-4-11-10-12-5 1-6 10-6 13l-4 21c-2 5-5 8-8 12l-7 14c-3 9-6 18-11 27l-3 5c-5 6-8-1-10-4l-7-31c-1-5-2-10-6-14-4-5-7 3-9 6-6 6-9-5-10-8-2-9-3-19-9-27l-7-6c-10-8-10-20-14-31a60 60 0 0 0-33-32c-5-2-11-4-17-4l-13-1v9h11z" />
</svg>
