<svg xmlns="http://www.w3.org/2000/svg" id="Layer_1" version="1" viewBox="0 0 355 533" fill="#030303">
  <path d="M0 0h355v2H0zM355 19H0v-2h355v2zM355 36H249a437 437 0 0 0-31 2l-13-1c-22-1-44-2-65-1H0v-2h355v2zM355 53h-86c-16 1-32 7-49 6l-25-4a201 201 0 0 0-54-4 628 628 0 0 0-60 2H0v-3h45l96-1c19-1 38 0 57 3l12 2c13 2 26 0 40-2a115 115 0 0 1 17-2h88v3zM355 71h-85l-9 2-18 8c-7 3-14 6-21 4s-13-6-20-10c-6-3-14-6-21-7-36-9-72 0-108 2l-13 1H0v-4h69c30-1 59-6 89-5a149 149 0 0 1 28 4l15 5 15 6c18 7 33-6 50-9 10-2 21-1 31-1h58v4z" />
  <path d="M355 88h-43c-17 0-35-3-51 6l-13 8c-6 4-13 10-21 12-6 1-12-2-17-7-5-6-10-13-16-17-7-5-14-8-22-10s-16-3-25-3h-21l-37 5-37 5-8 1H0v-4h38l15-1c12 0 25-2 37-4l36-4a210 210 0 0 1 47 2c6 1 12 3 18 7 6 3 11 8 16 13s10 10 16 11c13 1 24-11 35-17l15-6 12-1h70v4z" />
  <path d="M355 105h-68c-9 0-17 3-25 7-11 7-21 16-32 22-7 4-16 6-22 0-7-6-10-15-16-22a47 47 0 0 0-10-9 35 35 0 0 0-7-4c-23-9-47-11-71-8-25 4-49 12-73 14H0v-4h26l23-2 32-6 31-5a146 146 0 0 1 59 4l6 3c8 3 14 9 19 16 5 5 7 12 12 17s12 6 18 3c8-3 16-9 23-15 7-4 13-9 20-12 4-2 9-3 13-3h73v4z" />
  <path d="M355 122h-67c-7 0-14 1-21 5-10 4-19 10-28 16l-12 7c-8 5-20 10-28 1-7-8-9-21-19-28l-14-4-6-1c-10-3-19-8-28-12l-3-1c-10-3-19-2-29-1-29 4-58 18-88 18H0v-4a1452 1452 0 0 0 37-3l30-7 24-6c12-2 26-4 38-2 13 3 24 9 36 13 5 1 11 2 17 6 4 3 7 8 10 13l9 15 8 5c10 2 19-5 27-10 9-7 19-14 29-19a55 55 0 0 1 17-5c13-2 27 0 41 0h32v4z" />
  <path d="M355 139h-75l-16 4c-19 7-35 23-55 27-8 2-15 1-20-7s-9-17-17-21c-5-3-10-3-16-4-9 0-19-1-27-6-7-4-13-11-21-12-15-3-30 3-44 7-15 5-31 10-47 12H0v-5h17c18-1 36-8 53-13 15-4 32-11 47-5 8 3 14 10 22 13 9 3 18 4 27 5l4 1c9 2 14 10 19 19 4 8 10 15 19 13 12-2 24-10 35-17l10-6c10-5 20-9 30-10h72v5z" />
  <path d="M355 156h-77c-7 0-13 2-20 4-11 4-22 10-32 15s-21 11-32 11c-11 1-15-8-21-16-7-10-16-13-26-14-12 0-23 1-34-5l-14-7c-5-2-11-3-17-2l-13 2c-21 5-41 12-63 12H0v-5h6a158 158 0 0 0 26-3l34-9 12-3c6-1 12-2 18-1 9 1 15 7 22 11 9 5 19 5 29 5 8 0 18 1 24 8 6 5 9 15 16 20 12 8 28-2 39-8l22-11c6-3 12-6 19-7l15-2h73v5z" />
  <path d="M355 173h-74c-8 0-15 0-22 2-8 1-15 4-22 7-16 6-32 15-49 19-4 1-9 1-14-1-4-2-7-5-10-9-5-7-11-13-19-16l-11-1-8-1c-9 0-19 0-28-3-10-2-19-4-29-3-10 0-19 2-29 4l-30 2H0v-5h9l17-1 41-8c9-1 19 0 29 3 9 3 18 6 28 6h14c11 1 21 5 28 15 4 4 7 10 12 12 6 3 12 1 18 0 24-7 46-24 71-27a61 61 0 0 1 8 0h80v5z" />
  <path d="M355 191c-32 0-64-2-97 0h-6c-14 2-27 8-40 13-11 4-22 10-34 12-6 2-13 3-19-1-6-3-9-10-14-14-11-10-24-10-36-10l-31-2H47l-21 1-26 1v-6h21l39-3c15-1 29 1 43 2l6 1h19c12 2 20 8 28 18 4 4 8 7 13 9 6 1 13-1 18-2 26-9 51-25 79-25h89v6z" />
  <path d="M355 208H249c-8 0-15 1-23 3a211 211 0 0 0-27 9l-15 6c-14 6-31 15-44 1-6-6-12-13-20-16-9-4-19-3-28-3H0v-7c118 0 120-1 131 7 5 3 8 7 12 11s8 8 13 9c9 2 18-2 26-5l8-3c15-6 30-12 45-16l16-2c19-2 39-1 59-1h45v7z" />
  <path d="M355 225H254c-15 0-30 0-45 4l-48 18c-5 2-10 4-15 4-5 1-11 0-15-3-5-3-9-8-13-12-8-8-18-11-28-11H0v-7h95c8 0 16 2 22 6s11 11 16 16c13 10 29 3 42-2l27-11c14-5 28-9 43-9h110v7z" />
  <path d="M355 242c-21 0-43-4-64-2l-32 2h-32a205 205 0 0 0-13 0c-14 2-28 7-42 13-14 5-27 13-42 14-10 0-16-6-22-14-9-9-18-13-29-13H0v-7h79c5 0 11 0 17 2l8 4c11 7 17 22 32 21 13-1 25-7 36-12 11-4 21-9 32-11 24-7 50-3 74-4l38-1 39 1v7z" />
  <path d="M355 259c-17-1-35-7-52-7-18 0-35 7-52 7a3743 3743 0 0 0-58 2l-10 2-20 7-28 11c-12 4-24 8-34-2-5-4-8-10-14-13-5-4-12-6-19-7H0v-7h65c12 0 24 1 33 11 5 4 8 10 14 13 6 4 13 2 19 1 15-4 30-11 44-17 14-5 28-8 42-8h35l35-4c23-3 45 3 68 4v7z" />
  <path d="M355 276c-18-2-36-13-55-13-19 1-36 12-55 13-21 1-41-2-62 1l-5 1a191 191 0 0 0-38 13l-24 10c-9 3-18 4-26-3-7-7-13-15-22-18-6-3-12-4-19-4H0v-7h52c12 0 23 1 32 10 9 7 14 18 26 17l7-2 5-1 16-6 4-2c20-8 40-16 61-16l48-1c17-1 34-10 52-10 18 1 34 9 52 10v8z" />
  <path d="M355 293c-9-1-17-4-26-8-8-4-16-9-25-10-18-3-34 8-50 14a89 89 0 0 1-25 4h-43a155 155 0 0 0-59 15l-11 6-13 6c-4 1-8 3-12 2-8 0-14-7-19-13-6-7-12-12-20-14-5-2-9-2-14-2H0v-8h26l26 1c7 1 13 4 18 8l15 15c11 9 24 2 35-3l4-2a348 348 0 0 1 48-17l16-2h45a95 95 0 0 0 17-2c17-3 33-14 51-14 9 0 18 4 26 8 9 4 19 7 28 8v8z" />
  <path d="M355 310c-12 0-23-4-34-12-9-6-18-13-29-11-12 1-23 8-34 13a186 186 0 0 1-21 7l-24 3c-18 0-37-1-55 1a95 95 0 0 0-34 10 145 145 0 0 0-19 11c-6 4-12 8-18 10-7 1-12-1-17-6-8-9-15-21-27-24l-8-1-35-1v-8h33c6 0 13 1 19 4 5 2 10 7 14 11 7 9 14 18 25 15l9-4 26-13a192 192 0 0 1 26-10 106 106 0 0 1 28-3h31c10 0 20 0 30-2l15-5c16-6 32-18 50-13 8 2 16 8 23 12 8 5 17 8 26 8v8z" />
  <path d="M355 328l-13-1c-8 0-15-2-21-7l-17-14c-13-10-27-3-40 3a298 298 0 0 1-46 17l-13 1-46 1h-15l-15 4c-8 3-15 8-22 12l-21 14c-4 3-9 5-14 3-4-1-8-5-11-9-6-7-11-15-19-20-4-2-8-4-12-4H0v-9h26c9 0 18 2 26 9 8 8 13 21 24 24 7 1 13-3 19-6l20-13a115 115 0 0 1 35-13c21-3 42 0 63-1a86 86 0 0 0 21-4 159 159 0 0 0 26-10c13-6 29-17 44-9 7 3 13 10 19 14a44 44 0 0 0 28 9h4v9z" />
  <path d="M355 345h-23c-5-1-11-1-15-3l-7-3-16-17c-8-7-16-6-25-3a120 120 0 0 0-12 5l-11 5a425 425 0 0 1-27 10c-14 5-27 6-42 6h-43c-11 2-21 8-31 15l-12 9c-5 4-10 9-15 10-6 2-11 0-16-5-8-8-14-18-23-25-6-3-12-4-18-4H0v-9c13 0 28-3 39 4 8 5 14 13 20 21 3 4 7 8 12 9 5 2 10-1 15-4l24-18a109 109 0 0 1 21-10l18-2c21 0 42 2 63-2a129 129 0 0 0 29-9l13-6c12-5 27-15 40-10 10 5 16 17 26 23l16 4h19v9z" />
  <path d="M355 362h-32c-11 0-21-2-30-10-6-6-11-16-20-17-7-2-14 1-20 3l-19 8a2497 2497 0 0 1-25 9 122 122 0 0 1-38 7h-31c-11 0-20 1-30 7a101 101 0 0 0-21 16l-4 4c-6 5-14 11-22 7s-13-12-19-18l-5-6-9-7c-10-5-20-3-30-3v-9c13 0 26-2 37 6l14 15c4 5 8 11 14 13 4 2 7 2 10 0l8-5 12-10a127 127 0 0 1 26-16 47 47 0 0 1 19-3l46-1c7 0 15-1 22-3l23-9c13-5 25-11 37-14l7-1c8-1 14 5 19 11 6 6 11 12 19 15l5 1 9 1h28v9z" />
  <path d="M355 379h-42l-15-1c-11-2-18-10-26-18-3-4-7-7-12-8-8-1-17 2-25 5l-12 5-4 2a331 331 0 0 1-24 8c-11 4-24 6-36 7h-31c-7 0-14 2-21 6a65 65 0 0 0-13 10l-8 8c-7 8-14 15-25 9l-8-6c-7-6-14-15-21-20-5-4-10-6-15-7H0v-10h17c8 1 15 6 22 12 9 9 22 31 37 22 6-4 11-10 16-15l21-15c6-2 11-4 17-4h42a128 128 0 0 0 49-13l24-10 10-3c6-1 12-2 18 1l12 12c3 3 6 7 10 9 7 4 15 4 22 4h38v10z" />
  <path d="M355 396c-21 0-43 2-65 0-5-1-11-2-16-5l-13-11c-8-8-16-11-27-9a68 68 0 0 0-9 3l-26 9a308 308 0 0 1-49 12l-18 1h-12a32 32 0 0 0-14 5 34 34 0 0 0-12 12c-5 7-9 16-18 17-10 1-20-6-28-13-10-8-20-18-33-20l-15-1v-10l17 1 4 1c18 6 29 30 48 33 9 1 14-6 19-12 6-8 12-14 20-18a37 37 0 0 1 18-5h21l13-1a194 194 0 0 0 55-15c10-4 20-9 31-10 5-1 10-1 14 2l11 10c5 5 10 9 16 12l13 2h55v10z" />
  <path d="M355 413h-70c-8 0-16 0-23-4-7-3-13-9-19-14-14-11-31-4-46 1-15 4-29 9-44 12l-23 4c-7 1-14 0-19 3-6 4-8 10-11 15a23 23 0 0 1-21 13l-8-1a50 50 0 0 1-13-5c-15-7-27-20-43-23l-9-1H0v-10h12l16 5 5 4 20 15a68 68 0 0 0 15 7l6 1c6 1 12-2 16-7l10-16c8-8 18-9 28-9l11-1c19-1 38-7 56-13l14-5 20-6h13c8 3 14 10 21 16 8 7 17 9 27 9h65v10z" />
  <path d="M355 430c-30 0-61 2-91 0l-10-1c-10-2-17-8-25-14-7-6-15-9-25-8a77 77 0 0 0-14 3l-42 12-12 3-8 2c-11 4-16 18-27 23-20 10-43 1-62-9a73 73 0 0 0-33-11H0v-10h6c15 0 28 9 41 16 13 8 30 16 45 9 8-3 11-10 16-17 5-8 13-9 21-10l35-7 35-11c9-3 21-7 31-3 8 4 14 12 22 17 9 5 18 6 28 6h75v10z" />
  <path d="M355 447h-72c-16 0-35 3-52-3-9-3-16-9-24-14-9-5-19-4-29-2-12 3-25 6-36 12-11 5-20 14-31 19s-24 6-35 5c-19-1-36-11-54-15l-8-1-14-1v-11h6a56 56 0 0 1 18 3l36 15a67 67 0 0 0 41 1c9-3 15-10 22-16 6-6 12-8 20-10l30-9c12-3 26-9 38-5 7 2 12 7 17 11s11 7 18 9c12 2 24 1 36 1h73v11z" />
  <path d="M355 465h-91c-13 0-27 1-40-1-20-2-36-18-57-15l-9 2-24 10a108 108 0 0 1-84 10l-16-4-13-2H0v-12h9a93 93 0 0 1 8 1c6 0 12 2 18 4 13 4 26 9 40 10a84 84 0 0 0 28-2c12-4 23-11 34-17 11-7 24-11 36-14 7-1 14-2 21 0 6 1 11 5 17 8 12 8 24 10 38 10h106v12z" />
  <path d="M355 482H219c-10 0-19-1-29-3l-27-6c-19-1-36 7-54 11-10 2-19 3-29 3-15 0-29-3-44-4l-8-1H0v-12h19c20 1 38 8 58 9a112 112 0 0 0 48-9c13-5 25-11 38-13l10-1c8 1 16 4 24 8 8 3 16 5 25 6h133v12z" />
  <path d="M355 499H194l-45-3-30 2-10 1-36 2-35-2H0v-12h33l29 3c15 2 29 1 44-1 14-2 28-7 43-8 10-1 21 1 31 3l33 3h142v12zM355 516H0v-12h60c21 1 42 0 64-2h14l54 2h163v12zM355 533H0v-13h355v13z" />
</svg>
