<svg xmlns="http://www.w3.org/2000/svg" fill="#030303" viewBox="0 0 355.384 533.076">
  <path d="M355.384 2.954H206.14l-9.442-.001-9.491-.001h-9.515l-9.515.001h-9.491l-9.442.001H0V0h355.384v2.954zm0 17.1H242.938l-4.483-.004-4.522-.006-4.559-.012-4.592-.015-4.622-.02-4.65-.023-4.674-.025-4.696-.025-4.713-.024-4.729-.022-4.741-.019-4.75-.013-4.756-.009-4.759-.002-4.759.004-4.756.01-4.75.015-4.741.02-4.729.023-4.713.024-4.696.025-4.674.025-4.65.022-4.622.019-4.592.014-4.559.01-4.522.006-4.483.002H0v-3.4h116.929l4.522-.001 4.559-.004 4.592-.006 4.622-.01 4.65-.013 4.674-.015 4.696-.016 4.713-.017 4.729-.015 4.741-.013 4.75-.011 4.756-.007 4.759-.002 4.759.001 4.756.006 4.75.009 4.741.013 4.729.015 4.713.016 4.696.016 4.674.016 4.65.013 4.622.011 4.592.008 4.559.004 4.522.002h116.929v3.4zm0 17.101h-86.547l-4.183-.001-4.24-.006-4.294-.016-4.347-.027-4.394-.042-4.441-.055-4.483-.07-4.522-.082-4.559-.093-4.592-.1-4.622-.106-4.65-.106-4.674-.104-4.696-.097-4.713-.089-4.729-.076-4.741-.061-4.75-.045-4.756-.026-4.759-.007-4.759.013-4.756.031-4.75.05-4.741.066-4.729.08-4.713.091-4.696.1-4.674.105-4.65.107-4.622.104-4.592.099-4.559.09-4.522.079-4.483.066-4.441.051-4.395.037-4.346.023-4.294.012-4.241.005H0v-3.847h94.97l4.294-.004 4.347-.011 4.394-.021 4.441-.032 4.483-.043 4.522-.055 4.559-.066 4.592-.073 4.622-.08 4.65-.082 4.674-.083 4.696-.079 4.713-.074 4.729-.064 4.741-.054 4.75-.04 4.756-.026 4.759-.011 4.759.006 4.756.022 4.75.036 4.741.05 4.729.062 4.713.071 4.696.078 4.674.081 4.65.083 4.622.081 4.592.075 4.559.068 4.522.058 4.483.047 4.441.036 4.395.024 4.346.013 4.294.006 4.241.001h90.729v3.847zm0 17.101h-70.455l-3.921-.001-3.992-.005-4.058-.019-4.121-.037-4.183-.061-4.24-.088-4.294-.116-4.347-.144-4.394-.171-4.441-.194-4.483-.215-4.522-.23-4.559-.239-4.592-.241-4.622-.241-4.65-.234-4.674-.221-4.696-.204-4.713-.181-4.729-.153-4.741-.121-4.75-.088-4.756-.051-4.759-.014-4.759.025-4.756.062-4.75.097-4.741.131-4.729.162-4.713.188-4.696.21-4.674.226-4.65.237-4.622.242-4.592.242-4.559.237-4.522.226-4.483.21-4.441.188-4.395.163-4.346.136-4.294.108-4.241.079-4.182.053-4.122.03-4.057.013-3.992.004H0v-4.294h78.368l4.057-.004 4.122-.015 4.183-.031 4.24-.051 4.294-.075 4.347-.1 4.394-.124 4.441-.147 4.483-.167 4.522-.184 4.559-.195 4.592-.204 4.622-.205 4.65-.2 4.674-.192 4.696-.178 4.713-.16 4.729-.139 4.741-.113 4.75-.084 4.756-.054 4.759-.021 4.759.012 4.756.044 4.75.076 4.741.105 4.729.131 4.713.154 4.696.174 4.674.187 4.65.198 4.622.204 4.592.204 4.559.199 4.522.187 4.483.172 4.441.153 4.395.131 4.346.107 4.294.083 4.241.058 4.182.037 4.122.02 4.057.006 3.991.001h74.377v4.294zm0 17.101h-59.14l-3.694-.001-3.773-.005-3.848-.02-3.921-.046-3.992-.079-4.058-.118-4.121-.162-4.183-.207-4.24-.251-4.294-.291-4.347-.328-4.394-.363-4.441-.392-4.483-.414-4.522-.429-4.559-.436-4.592-.433-4.622-.422-4.65-.402-4.674-.375-4.696-.34-4.713-.299-4.729-.252-4.741-.2-4.75-.143-4.756-.083-4.759-.022-4.759.04-4.756.1-4.75.16-4.741.215-4.729.267-4.713.312-4.696.352-4.674.384-4.65.409-4.622.427-4.592.435-4.559.436-4.522.427-4.483.409-4.441.385-4.395.354-4.346.317-4.294.28-4.241.238-4.182.193-4.122.148-4.057.106-3.992.067-3.921.036-3.848.013-3.773.003H0v-4.741h66.607l3.848-.004 3.921-.018 3.992-.041 4.057-.072 4.122-.107 4.183-.147 4.24-.187 4.294-.227 4.347-.264 4.394-.295 4.441-.323 4.483-.347 4.522-.365 4.559-.374 4.592-.377 4.622-.373 4.65-.36 4.674-.338 4.696-.31 4.713-.275 4.729-.235 4.741-.189 4.75-.141 4.756-.089 4.759-.035 4.759.019 4.756.074 4.75.126 4.741.175 4.729.222 4.713.264 4.696.3 4.674.331 4.65.353 4.622.369 4.592.376 4.559.375 4.522.367 4.483.353 4.441.33 4.395.303 4.346.273 4.294.239 4.241.199 4.182.159 4.122.12 4.057.083 3.992.05 3.921.025 3.848.008h66.607v4.741zm0 17.1h-55.529l-3.611-.007-3.694-.029-3.773-.065-3.848-.11-3.921-.166-3.992-.225-4.058-.284-4.121-.347-4.183-.41-4.24-.47-4.294-.526-4.347-.572-4.394-.612-4.441-.646-4.483-.667-4.522-.677-4.559-.676-4.592-.664-4.622-.641-4.65-.607-4.674-.561-4.696-.506-4.713-.441-4.729-.37-4.741-.291-4.75-.208-4.756-.121-4.759-.032-4.759.058-4.756.146-4.75.232-4.741.315-4.729.392-4.713.461-4.696.523-4.674.577-4.65.619-4.622.65-4.592.671-4.559.679-4.522.677-4.483.663-4.441.639-4.395.602-4.346.561-4.294.511-4.241.453-4.182.391-4.122.327-4.057.266-3.992.205-3.921.147-3.848.094-3.773.05-3.694.019-3.611.003H0v-5.186h55.529l3.611-.001 3.694-.008 3.773-.028 3.848-.063 3.921-.106 3.992-.157 4.057-.213 4.122-.269 4.183-.324 4.24-.381 4.294-.433 4.347-.482 4.394-.524 4.441-.556 4.483-.579 4.522-.596 4.559-.602 4.592-.595 4.622-.578 4.65-.551 4.674-.514 4.696-.469 4.713-.414 4.729-.352 4.741-.283 4.75-.21 4.756-.132 4.759-.052 4.759.029 4.756.109 4.75.187 4.741.263 4.729.333 4.713.396 4.696.453 4.674.501 4.65.54 4.622.57 4.592.59 4.559.6 4.522.597 4.483.584 4.441.562 4.395.533 4.346.495 4.294.447 4.241.397 4.182.341 4.122.285 4.057.231 3.992.175 3.921.122 3.848.077 3.773.039 3.694.014 3.611.002h55.529v5.186z"/>
  <path d="M355.384 105.558h-48.563l-3.439-.002-3.527-.021-3.611-.058-3.694-.113-3.773-.179-3.848-.25-3.921-.331-3.992-.416-4.058-.502-4.121-.584-4.183-.666-4.24-.742-4.294-.808-4.347-.867-4.394-.913-4.441-.946-4.483-.963-4.522-.966-4.559-.955-4.592-.931-4.622-.893-4.65-.839-4.674-.773-4.696-.692-4.713-.603-4.729-.503-4.741-.395-4.75-.282-4.756-.164-4.759-.043-4.759.078-4.756.198-4.75.315-4.741.428-4.729.533-4.713.631-4.696.718-4.674.794-4.65.858-4.622.908-4.592.942-4.559.962-4.522.968-4.483.962-4.441.94-4.395.904-4.346.852-4.294.791-4.241.722-4.182.642-4.122.56-4.057.476-3.992.388-3.921.304-3.848.226-3.773.155-3.694.092-3.611.042-3.527.01-3.439.001H0v-5.633h52.002l3.527-.004 3.611-.024 3.694-.063 3.773-.116 3.848-.18 3.921-.248 3.992-.322 4.057-.4 4.122-.481 4.183-.554 4.24-.627 4.294-.694 4.347-.75 4.394-.798 4.441-.836 4.483-.861 4.522-.871 4.559-.866 4.592-.848 4.622-.818 4.65-.774 4.674-.718 4.696-.651 4.713-.572 4.729-.486 4.741-.389 4.75-.288 4.756-.18 4.759-.072 4.759.04 4.756.149 4.75.257 4.741.361 4.729.458 4.713.547 4.696.628 4.674.699 4.65.758 4.622.804 4.592.839 4.559.86 4.522.869 4.483.863 4.441.843 4.395.808 4.346.763 4.294.711 4.241.646 4.182.576 4.122.503 4.057.426 3.992.346 3.921.271 3.848.202 3.773.137 3.694.081 3.611.036 3.527.009 3.439.001h48.563v5.633z"/>
  <path d="M355.384 122.659h-45.216l-3.347-.002-3.439-.024-3.527-.074-3.611-.143-3.694-.226-3.773-.322-3.848-.426-3.921-.534-3.992-.645-4.058-.756-4.121-.865-4.183-.963-4.24-1.052-4.294-1.131-4.347-1.199-4.394-1.25-4.441-1.281-4.483-1.297-4.522-1.292-4.559-1.272-4.592-1.233-4.622-1.176-4.65-1.103-4.674-1.011-4.696-.905-4.713-.785-4.729-.655-4.741-.514-4.75-.366-4.756-.212-4.759-.056-4.759.101-4.756.257-4.75.41-4.741.556-4.729.694-4.713.822-4.696.938-4.674 1.041-4.65 1.129-4.622 1.197-4.592 1.249-4.559 1.283-4.522 1.298-4.483 1.298-4.441 1.278-4.395 1.24-4.346 1.184-4.294 1.112-4.241 1.027-4.182.937-4.122.833-4.057.722-3.992.612-3.921.498-3.848.391-3.773.288-3.694.195-3.611.116-3.527.052-3.439.011-3.347.001H0v-6.08h48.563l3.439-.006 3.527-.034 3.611-.088 3.694-.157 3.773-.237 3.848-.329 3.921-.427 3.992-.527 4.057-.632 4.122-.731 4.183-.828 4.24-.918 4.294-.995 4.347-1.059 4.394-1.113 4.441-1.153 4.483-1.176 4.522-1.18 4.559-1.165 4.592-1.136 4.622-1.088 4.65-1.026 4.674-.949 4.696-.856 4.713-.752 4.729-.636 4.741-.509 4.75-.375 4.756-.236 4.759-.093 4.759.051 4.756.195 4.75.336 4.741.471 4.729.599 4.713.719 4.696.826 4.674.922 4.65 1.003 4.622 1.07 4.592 1.12 4.559 1.156 4.522 1.174 4.483 1.176 4.441 1.159 4.395 1.123 4.346 1.073 4.294 1.013 4.241.941 4.182.854 4.122.76 4.057.662 3.992.56 3.921.459 3.848.361 3.773.266 3.694.184 3.611.112 3.527.052 3.439.013 3.347.001h45.216v6.08z"/>
  <path d="M355.384 139.759h-45.216l-3.347-.009-3.439-.058-3.527-.138-3.611-.24-3.694-.355-3.773-.484-3.848-.62-3.921-.76-3.992-.895-4.058-1.035-4.121-1.167-4.183-1.286-4.24-1.392-4.294-1.488-4.347-1.565-4.394-1.623-4.441-1.656-4.483-1.668-4.522-1.656-4.559-1.624-4.592-1.569-4.622-1.494-4.65-1.397-4.674-1.28-4.696-1.143-4.713-.991-4.729-.826-4.741-.648-4.75-.462-4.756-.268-4.759-.07-4.759.127-4.756.325-4.75.516-4.741.701-4.729.876-4.713 1.038-4.696 1.186-4.674 1.318-4.65 1.43-4.622 1.522-4.592 1.592-4.559 1.639-4.522 1.666-4.483 1.671-4.441 1.653-4.395 1.613-4.346 1.549-4.294 1.464-4.241 1.365-4.182 1.254-4.122 1.131-4.057.993-3.992.854-3.921.716-3.848.573-3.773.44-3.694.313-3.611.201-3.527.105-3.439.034-3.347.002H0v-6.526h45.216l3.347-.001 3.439-.025 3.527-.086 3.611-.167 3.694-.268 3.773-.381 3.848-.503 3.921-.63 3.992-.762 4.057-.89 4.122-1.01 4.183-1.13 4.24-1.237 4.294-1.328 4.347-1.401 4.394-1.462 4.441-1.506 4.483-1.527 4.522-1.526 4.559-1.501 4.592-1.457 4.622-1.392 4.65-1.307 4.674-1.206 4.696-1.086 4.713-.952 4.729-.805 4.741-.644 4.75-.474 4.756-.298 4.759-.117 4.759.065 4.756.246 4.75.424 4.741.595 4.729.759 4.713.909 4.696 1.048 4.674 1.171 4.65 1.277 4.622 1.366 4.592 1.437 4.559 1.487 4.522 1.516 4.483 1.525 4.441 1.51 4.395 1.473 4.346 1.418 4.294 1.347 4.241 1.263 4.182 1.161 4.122 1.046 4.057.925 3.992.802 3.921.672 3.848.544 3.773.42 3.694.306 3.611.202 3.527.114 3.439.045 3.347.006h45.216v6.526z"/>
  <path d="M355.384 156.86h-45.216l-3.347-.013-3.439-.085-3.527-.197-3.611-.333-3.694-.483-3.773-.643-3.848-.814-3.921-.986-3.992-1.153-4.058-1.324-4.121-1.485-4.183-1.63-4.24-1.755-4.294-1.869-4.347-1.962-4.394-2.028-4.441-2.067-4.483-2.077-4.522-2.058-4.559-2.013-4.592-1.943-4.622-1.846-4.65-1.724-4.674-1.579-4.696-1.41-4.713-1.223-4.729-1.019-4.741-.801-4.75-.57-4.756-.331-4.759-.088-4.759.158-4.756.401-4.75.638-4.741.866-4.729 1.081-4.713 1.28-4.696 1.464-4.674 1.626-4.65 1.765-4.622 1.881-4.592 1.971-4.559 2.034-4.522 2.072-4.483 2.083-4.441 2.064-4.395 2.018-4.346 1.943-4.294 1.842-4.241 1.722-4.182 1.591-4.122 1.441-4.057 1.274-3.992 1.101-3.921.933-3.848.757-3.773.588-3.694.429-3.611.281-3.527.153-3.439.049-3.347.003H0v-6.973h45.216l3.347-.003 3.439-.045 3.527-.135 3.611-.25 3.694-.383 3.773-.531 3.848-.683 3.921-.842 3.992-1.005 4.057-1.16 4.122-1.307 4.183-1.452 4.24-1.581 4.294-1.688 4.347-1.774 4.394-1.843 4.441-1.891 4.483-1.912 4.522-1.907 4.559-1.874 4.592-1.815 4.622-1.73 4.65-1.622 4.674-1.493 4.696-1.343 4.713-1.176 4.729-.992 4.741-.796 4.75-.585 4.756-.368 4.759-.145 4.759.08 4.756.304 4.75.524 4.741.735 4.729.936 4.713 1.123 4.696 1.295 4.674 1.449 4.65 1.583 4.622 1.697 4.592 1.789 4.559 1.855 4.522 1.895 4.483 1.908 4.441 1.895 4.395 1.853 4.346 1.792 4.294 1.711 4.241 1.611 4.182 1.49 4.122 1.349 4.057 1.203 3.992 1.053 3.921.893 3.848.734 3.773.582 3.694.432 3.611.297 3.527.175 3.439.076 3.347.012h45.216v6.973z"/>
  <path d="M355.384 173.961h-45.216l-3.347-.013-3.439-.092-3.527-.233-3.611-.4-3.694-.586-3.773-.781-3.848-.99-3.921-1.199-3.992-1.402-4.058-1.607-4.121-1.805-4.183-1.981-4.24-2.134-4.294-2.267-4.347-2.38-4.394-2.462-4.441-2.51-4.483-2.524-4.522-2.502-4.559-2.447-4.592-2.36-4.622-2.241-4.65-2.093-4.674-1.916-4.696-1.712-4.713-1.485-4.729-1.239-4.741-.974-4.75-.695-4.756-.404-4.759-.107-4.759.193-4.756.489-4.75.777-4.741 1.053-4.729 1.314-4.713 1.555-4.696 1.776-4.674 1.973-4.65 2.143-4.622 2.284-4.592 2.394-4.559 2.473-4.522 2.519-4.483 2.531-4.441 2.507-4.395 2.448-4.346 2.355-4.294 2.236-4.241 2.096-4.182 1.935-4.122 1.749-4.057 1.546-3.992 1.34-3.921 1.134-3.848.921-3.773.714-3.694.52-3.611.336-3.527.176-3.439.051-3.347.003H0v-7.42h45.216l3.347-.003 3.439-.051 3.527-.169L59.14 166l3.694-.484 3.773-.665 3.848-.852 3.921-1.046 3.992-1.245 4.057-1.433 4.122-1.608 4.183-1.782 4.24-1.939 4.294-2.071 4.347-2.175 4.394-2.252 4.441-2.304 4.483-2.329 4.522-2.322 4.559-2.282 4.592-2.209 4.622-2.106 4.65-1.975 4.674-1.816 4.696-1.634 4.713-1.43 4.729-1.208 4.741-.967 4.75-.714 4.756-.449 4.759-.177 4.759.098 4.756.371 4.75.638 4.741.895 4.729 1.139 4.713 1.366 4.696 1.575 4.674 1.762 4.65 1.928 4.622 2.066 4.592 2.178 4.559 2.258 4.522 2.307 4.483 2.325 4.441 2.307 4.395 2.264 4.346 2.194 4.294 2.098 4.241 1.976 4.182 1.828 4.122 1.659 4.057 1.485 3.992 1.303 3.921 1.108 3.848.913 3.773.728 3.694.545 3.611.375 3.527.222 3.439.091 3.347.013h45.216v7.42z"/>
  <path d="M355.384 191.062h-45.216l-3.347-.014-3.439-.092-3.527-.236-3.611-.425-3.694-.646-3.773-.877-3.848-1.126-3.921-1.378-3.992-1.623-4.058-1.864-4.121-2.104-4.183-2.323-4.24-2.517-4.294-2.681-4.347-2.82-4.394-2.924-4.441-2.988-4.483-3.008-4.522-2.985-4.559-2.923-4.592-2.819-4.622-2.678-4.65-2.501-4.674-2.291-4.696-2.048-4.713-1.779-4.729-1.485-4.741-1.17-4.75-.837-4.756-.488-4.759-.13-4.759.234-4.756.59-4.75.935-4.741 1.264-4.729 1.574-4.713 1.862-4.696 2.125-4.674 2.359-4.65 2.561-4.622 2.729-4.592 2.86-4.559 2.952-4.522 3.005-4.483 3.015-4.441 2.982-4.395 2.905-4.346 2.79-4.294 2.642-4.241 2.467-4.182 2.265-4.122 2.036-4.057 1.792-3.992 1.549-3.921 1.299-3.848 1.042-3.773.798-3.694.566-3.611.351-3.527.176-3.439.051-3.347.004H0v-7.867h45.216l3.347-.003 3.439-.051 3.527-.176 3.611-.35 3.694-.549 3.773-.769 3.848-.994 3.921-1.222 3.992-1.462 4.057-1.691 4.122-1.905 4.183-2.105 4.24-2.297 4.294-2.462 4.347-2.593 4.394-2.691 4.441-2.754 4.483-2.784 4.522-2.777 4.559-2.731 4.592-2.645 4.622-2.523 4.65-2.365 4.674-2.176 4.696-1.958 4.713-1.715 4.729-1.449 4.741-1.162 4.75-.859 4.756-.542 4.759-.214 4.759.119 4.756.448 4.75.768 4.741 1.076 4.729 1.366 4.713 1.639 4.696 1.887 4.674 2.113 4.65 2.309 4.622 2.474 4.592 2.607 4.559 2.703 4.522 2.761 4.483 2.779 4.441 2.759 4.395 2.704 4.346 2.619 4.294 2.497 4.241 2.343 4.182 2.16 4.122 1.962 4.057 1.756 3.992 1.533 3.921 1.298 3.848 1.066 3.773.844 3.694.623 3.611.42 3.527.236 3.439.092 3.347.013h45.216v7.867z"/>
  <path d="M355.384 208.162h-45.216l-3.347-.013-3.439-.094-3.527-.239-3.611-.425-3.694-.656-3.773-.912-3.848-1.196-3.921-1.496-3.992-1.792-4.058-2.081-4.121-2.371-4.183-2.64-4.24-2.88-4.294-3.085-4.347-3.261-4.394-3.397-4.441-3.485-4.483-3.521-4.522-3.505-4.559-3.442-4.592-3.329-4.622-3.167-4.65-2.96-4.674-2.712-4.696-2.428-4.713-2.111-4.729-1.763-4.741-1.391-4.75-.996-4.756-.583-4.759-.154-4.759.279-4.756.703-4.75 1.113-4.741 1.502-4.729 1.868-4.713 2.208-4.696 2.518-4.674 2.794-4.65 3.03-4.622 3.226-4.592 3.375-4.559 3.474-4.522 3.524-4.483 3.526-4.441 3.474-4.395 3.371-4.346 3.22-4.294 3.036-4.241 2.817-4.182 2.567-4.122 2.287-4.057 1.994-3.992 1.701-3.921 1.4-3.848 1.099-3.773.822-3.694.571-3.611.352-3.527.179-3.439.052-3.347.003H0v-8.313h45.216l3.347-.003 3.439-.052 3.527-.177 3.611-.352 3.694-.567 3.773-.819 3.848-1.086 3.921-1.353 3.992-1.632 4.057-1.911 4.122-2.173 4.183-2.418 4.24-2.649 4.294-2.853 4.347-3.02 4.394-3.145 4.441-3.226 4.483-3.268 4.522-3.267 4.559-3.217 4.592-3.121 4.622-2.979 4.65-2.795 4.674-2.575 4.696-2.321 4.713-2.034 4.729-1.721 4.741-1.383 4.75-1.025 4.756-.647 4.759-.256 4.759.142 4.756.536 4.75.916 4.741 1.281 4.729 1.624 4.713 1.945 4.696 2.237 4.674 2.501 4.65 2.729 4.622 2.924 4.592 3.076 4.559 3.186 4.522 3.249 4.483 3.264 4.441 3.233 4.395 3.165 4.346 3.053 4.294 2.899 4.241 2.707 4.182 2.484 4.122 2.245 4.057 1.99 3.992 1.719 3.921 1.439 3.848 1.173 3.773.909 3.694.65 3.611.426 3.527.237 3.439.093 3.347.013h45.216v8.313z"/>
  <path d="M355.384 225.263h-45.216l-3.347-.013-3.439-.095-3.527-.242-3.611-.431-3.694-.661-3.773-.921-3.848-1.212-3.921-1.539-3.992-1.879-4.058-2.221-4.121-2.565-4.183-2.894-4.24-3.193-4.294-3.464-4.347-3.695-4.394-3.877-4.441-4.003-4.483-4.066-4.522-4.068-4.559-4.005-4.592-3.879-4.622-3.695-4.65-3.457-4.674-3.17-4.696-2.838-4.713-2.467-4.729-2.063-4.741-1.627-4.75-1.167-4.756-.682-4.759-.181-4.759.327-4.756.824-4.75 1.302-4.741 1.758-4.729 2.185-4.713 2.581-4.696 2.943-4.674 3.263-4.65 3.539-4.622 3.763-4.592 3.931-4.559 4.039-4.522 4.085-4.483 4.066-4.441 3.982-4.395 3.839-4.346 3.64-4.294 3.395-4.241 3.113-4.182 2.802-4.122 2.463-4.057 2.117-3.992 1.772-3.921 1.43-3.848 1.111-3.773.831-3.694.575-3.611.358-3.527.18-3.439.053-3.347.003H0v-8.759h45.216l3.347-.003 3.439-.053 3.527-.179 3.611-.357 3.694-.572 3.773-.82 3.848-1.111 3.921-1.42 3.992-1.742 4.057-2.073 4.122-2.389 4.183-2.685 4.24-2.964 4.294-3.219 4.347-3.432 4.394-3.598 4.441-3.718 4.483-3.785 4.522-3.796 4.559-3.749 4.592-3.644 4.622-3.487 4.65-3.277 4.674-3.021 4.696-2.724 4.713-2.388 4.729-2.022 4.741-1.625 4.75-1.204 4.756-.762 4.759-.302 4.759.167 4.756.631 4.75 1.078 4.741 1.505 4.729 1.908 4.713 2.283 4.696 2.626 4.674 2.935 4.65 3.201 4.622 3.423 4.592 3.596 4.559 3.715 4.522 3.778 4.483 3.784 4.441 3.734 4.395 3.628 4.346 3.477 4.294 3.279 4.241 3.037 4.182 2.765 4.122 2.478 4.057 2.169 3.992 1.846 3.921 1.52 3.848 1.211 3.773.915 3.694.653 3.611.431 3.527.24 3.439.095 3.347.013h45.216v8.759z"/>
  <path d="M355.384 242.364h-45.216l-3.347-.014-3.439-.095-3.527-.243-3.611-.437-3.694-.674-3.773-.941-3.848-1.231-3.921-1.557-3.992-1.903-4.058-2.278-4.121-2.672-4.183-3.069-4.24-3.443-4.294-3.779-4.347-4.068-4.394-4.301-4.441-4.468-4.483-4.566-4.522-4.59-4.559-4.539-4.592-4.414-4.622-4.219-4.65-3.958-4.674-3.637-4.696-3.263-4.713-2.841-4.729-2.378-4.741-1.879-4.75-1.347-4.756-.789-4.759-.209-4.759.378-4.756.952-4.75 1.504-4.741 2.028-4.729 2.519-4.713 2.971-4.696 3.382-4.674 3.742-4.65 4.048-4.622 4.292-4.592 4.468-4.559 4.573-4.522 4.603-4.483 4.556-4.441 4.437-4.395 4.249-4.346 3.998-4.294 3.69-4.241 3.34-4.182 2.955-4.122 2.552-4.057 2.16-3.992 1.792-3.921 1.449-3.848 1.131-3.773.848-3.694.585-3.611.362-3.527.181-3.439.054-3.347.003H0v-9.206h45.216l3.347-.003 3.439-.054 3.527-.18 3.611-.358 3.694-.583 3.773-.834 3.848-1.125 3.921-1.437 3.992-1.773 4.057-2.143 4.122-2.516 4.183-2.882 4.24-3.23 4.294-3.547 4.347-3.822 4.394-4.045 4.441-4.208 4.483-4.306 4.522-4.334 4.559-4.293 4.592-4.183 4.622-4.009 4.65-3.775 4.674-3.483 4.696-3.143 4.713-2.759 4.729-2.336 4.741-1.88 4.75-1.394 4.756-.881 4.759-.35 4.759.194 4.756.73 4.75 1.248 4.741 1.741 4.729 2.206 4.713 2.637 4.696 3.032 4.674 3.383 4.65 3.689 4.622 3.938 4.592 4.13 4.559 4.257 4.522 4.319 4.483 4.309 4.441 4.233 4.395 4.089 4.346 3.884 4.294 3.626 4.241 3.323 4.182 2.984 4.122 2.625 4.057 2.257 3.992 1.886 3.921 1.541 3.848 1.225 3.773.929 3.694.666 3.611.436 3.527.24 3.439.095 3.347.014h45.216v9.206z"/>
  <path d="M355.384 259.464h-45.216l-3.347-.013-3.439-.098-3.527-.249-3.611-.446-3.694-.683-3.773-.957-3.848-1.264-3.921-1.605-3.992-1.961-4.058-2.33-4.121-2.711-4.183-3.101-4.24-3.498-4.294-3.888-4.347-4.243-4.394-4.543-4.441-4.776-4.483-4.934-2.256-2.501-2.266-2.51-2.275-2.507-2.284-2.493-2.292-2.469-2.3-2.433-4.622-4.718-4.65-4.454-4.674-4.113-4.696-3.706-4.713-3.238-4.729-2.719-4.741-2.151-4.75-1.545-4.756-.905-4.759-.24-4.759.433-4.756 1.093-4.75 1.724-4.741 2.322-4.729 2.876-4.713 3.384-4.696 3.836-4.674 4.226-4.65 4.548-4.622 4.79-2.3 2.461-2.292 2.49-2.284 2.508-2.275 2.516-2.266 2.513-2.256 2.497-4.483 4.908-4.441 4.726-4.395 4.471-4.346 4.151-4.294 3.782-4.241 3.383-4.182 2.986-4.122 2.595-4.057 2.216-3.992 1.849-3.921 1.493-3.848 1.157-3.773.861-3.694.594-3.611.371-3.527.185-3.439.055-3.347.002H0v-9.652h45.216l3.347-.003 3.439-.054 3.527-.183 3.611-.365 3.694-.591 3.773-.848 3.848-1.145 3.921-1.464 3.992-1.813 4.057-2.186 4.122-2.578 4.183-2.982 4.24-3.385 4.294-3.762 4.347-4.095 4.394-4.373 4.441-4.588 4.483-4.731 4.522-4.798 4.559-4.782 4.592-4.688 4.622-4.515 4.65-4.268 4.674-3.954 4.696-3.578 4.713-3.148 4.729-2.672 4.741-2.152 4.75-1.598 4.756-1.012 4.759-.401 4.759.222 4.756.838 4.75 1.431 4.741 1.995 4.729 2.523 4.713 3.012 4.696 3.453 4.674 3.845 4.65 4.176 4.622 4.441 4.592 4.634 4.559 4.752 4.522 4.79 4.483 4.746 4.441 4.627 4.395 4.433 4.346 4.174 4.294 3.857 4.241 3.496 4.182 3.101 4.122 2.697 4.057 2.305 3.992 1.927 3.921 1.572 3.848 1.247 3.773.945 3.694.676 3.611.442 3.527.245 3.439.096 3.347.014h45.216v9.652z"/>
  <path d="M355.384 276.565h-45.216l-3.347-.014-3.439-.1-3.527-.255-3.611-.461-3.694-.712-3.773-.992-3.848-1.298-3.921-1.618-3.992-1.953-4.058-2.306-4.121-2.666-4.183-3.029-4.24-3.4-4.294-3.775-4.347-4.15-4.394-4.516-4.441-4.834-2.236-2.515-2.247-2.567-2.256-2.608-2.266-2.637-2.275-2.654-2.284-2.658-2.292-2.649-2.3-2.627-2.307-2.594-2.315-2.546-2.322-2.486-2.328-2.415-4.674-4.568-4.696-4.146-4.713-3.647-4.729-3.076-4.741-2.444-4.75-1.76-4.756-1.033-4.759-.274-4.759.495-4.756 1.246-4.75 1.963-4.741 2.635-4.729 3.251-4.713 3.803-4.696 4.283-4.674 4.682-2.328 2.463-2.322 2.528-2.315 2.58-2.307 2.62-2.3 2.647-2.292 2.662-2.284 2.663-2.275 2.651-2.266 2.628-2.256 2.591-2.247 2.543-2.236 2.486-4.441 4.757-4.395 4.419-4.346 4.047-4.294 3.67-4.241 3.293-4.182 2.924-4.122 2.558-4.057 2.197-3.992 1.847-3.921 1.514-3.848 1.194-3.773.894-3.694.619-3.611.381-3.527.189-3.439.058-3.347.002H0v-10.099h45.216l3.347-.003 3.439-.055 3.527-.188 3.611-.373 3.694-.602 3.773-.872 3.848-1.178 3.921-1.508 3.992-1.86 4.057-2.222 4.122-2.592 4.183-2.971 4.24-3.357 4.294-3.75 4.347-4.137 4.394-4.487 4.441-4.777 2.236-2.474 2.247-2.518 2.256-2.551 2.266-2.575 2.275-2.585 2.284-2.584 2.292-2.572 2.3-2.547 2.308-2.512 2.314-2.463 4.65-4.74 4.674-4.42 4.696-4.023 4.713-3.557 4.729-3.029 4.741-2.448 4.75-1.82 4.756-1.155 4.759-.457 4.759.253 4.756.956 4.75 1.632 4.741 2.27 4.729 2.863 4.713 3.406 4.696 3.889 4.674 4.306 4.65 4.647 2.315 2.425 2.307 2.48 2.3 2.522 2.292 2.553 2.284 2.573 2.275 2.58 2.266 2.576 2.256 2.56 2.247 2.533 2.236 2.496 4.441 4.836 4.395 4.57 4.346 4.237 4.294 3.86 4.241 3.469 4.182 3.082 4.122 2.703 4.057 2.333 3.992 1.972 3.921 1.618 3.848 1.284 3.773.972 3.694.692 3.611.45 3.527.252 3.439.098 3.347.014h45.216v10.099z"/>
  <path d="M355.384 293.666h-45.216l-3.347-.016-3.439-.105-3.527-.271-3.611-.482-3.694-.719-3.773-.98-3.848-1.255-3.921-1.547-3.992-1.854-4.058-2.176-4.121-2.509-4.183-2.852-4.24-3.204-4.294-3.552-4.347-3.897-4.394-4.238-4.441-4.568-4.483-4.877-2.256-2.543-2.266-2.601-2.275-2.646-2.284-2.677-2.292-2.695-2.3-2.699-2.307-2.688-2.315-2.662-2.322-2.621-2.328-2.565-2.334-2.495-2.34-2.409-4.696-4.507-4.713-4.005-4.729-3.409-4.741-2.728-4.75-1.975-4.756-1.162-4.759-.309-4.759.558-4.756 1.401-4.75 2.2-4.741 2.935-4.729 3.594-4.713 4.166-4.696 4.64-2.34 2.464-2.334 2.542-2.328 2.604-2.322 2.652-2.315 2.683-2.307 2.702-2.3 2.704-2.292 2.691-2.284 2.667-2.275 2.626-2.266 2.574-2.256 2.51-4.483 4.798-4.441 4.481-4.395 4.147-4.346 3.803-4.294 3.455-4.241 3.103-4.182 2.75-4.122 2.409-4.057 2.078-3.992 1.757-3.921 1.453-3.848 1.163-3.773.889-3.694.636-3.611.414-3.527.188-3.439.057-3.347.004H0V283.12h45.216l3.347-.003 3.439-.057 3.527-.192 3.611-.389 3.694-.631 3.773-.902 3.848-1.191 3.921-1.499 3.992-1.825 4.057-2.16 4.122-2.514 4.183-2.873 4.24-3.235 4.294-3.599 4.347-3.966 4.394-4.329 4.441-4.68 2.236-2.459 2.247-2.527 2.256-2.585 2.266-2.632 2.275-2.666 2.284-2.687 2.292-2.696 2.3-2.69 2.308-2.67 2.314-2.638 2.322-2.592 2.328-2.531 2.334-2.459 2.34-2.372 4.696-4.438 4.713-3.955 4.729-3.392 4.741-2.754 4.75-2.057 4.756-1.307 4.759-.52 4.759.288 4.756 1.083 4.75 1.845 4.741 2.558 4.729 3.211 4.713 3.795 4.696 4.301 4.674 4.72 2.328 2.486 2.322 2.554 2.315 2.607 2.307 2.648 2.3 2.675 2.292 2.688 2.284 2.687 2.275 2.675 2.266 2.647 2.256 2.608 2.247 2.557 2.236 2.496 4.441 4.766 4.395 4.426 4.346 4.066 4.294 3.701 4.241 3.338 4.182 2.977 4.122 2.62 4.057 2.265 3.992 1.927 3.921 1.602 3.848 1.29 3.773.996 3.694.724 3.611.471 3.527.259 3.439.1 3.347.015h45.216v10.546z"/>
  <path d="M355.384 310.767h-45.216l-3.347-.019-3.439-.116-3.527-.27-3.611-.455-3.694-.661-3.773-.889-3.848-1.134-3.921-1.393-3.992-1.671-4.058-1.956-4.121-2.254-4.183-2.564-4.24-2.88-4.294-3.196-4.347-3.52-4.394-3.835-4.441-4.13-4.483-4.408-4.522-4.658-2.275-2.412-2.284-2.457-2.292-2.5-2.3-2.533-2.307-2.554-2.315-2.562-2.322-2.552-2.328-2.526-2.334-2.483-2.34-2.422-4.696-4.595-4.713-4.151-4.729-3.584-4.741-2.902-4.75-2.118-4.756-1.255-4.759-.334-4.759.603-4.756 1.511-4.75 2.354-4.741 3.112-4.729 3.765-4.713 4.298-4.696 4.704-2.34 2.464-2.334 2.514-2.328 2.548-2.322 2.564-2.315 2.564-2.307 2.548-2.3 2.52-2.292 2.481-4.559 4.821-4.522 4.597-4.483 4.338-4.441 4.053-4.395 3.751-4.346 3.43-4.294 3.108-4.241 2.789-4.182 2.472-4.122 2.166-4.057 1.867-3.992 1.584-3.921 1.308-3.848 1.053-3.773.809-3.694.588-3.611.384-3.527.208-3.439.067-3.347.006H0v-10.993h45.216l3.347-.004 3.439-.062 3.527-.207 3.611-.4 3.694-.626 3.773-.867 3.848-1.133 3.921-1.41 3.992-1.705 4.057-2.011 4.122-2.334 4.183-2.664 4.24-3 4.294-3.348 4.347-3.688 4.394-4.021 4.441-4.343 4.483-4.651 2.256-2.432 2.266-2.498 2.275-2.56 2.284-2.611 2.292-2.648 2.3-2.672 2.308-2.681 2.314-2.674 2.322-2.652 2.328-2.614 2.334-2.561 2.34-2.491 4.696-4.712 4.713-4.253 4.729-3.687 4.741-3.021 4.75-2.272 4.756-1.45 4.759-.577 4.759.32 4.756 1.203 4.75 2.04 4.741 2.811 4.729 3.501 4.713 4.095 4.696 4.584 2.34 2.44 2.334 2.519 2.328 2.581 2.322 2.627 2.315 2.658 2.307 2.674 2.3 2.674 2.292 2.658 2.284 2.629 2.275 2.586 2.266 2.531 2.256 2.466 4.483 4.726 4.441 4.427 4.395 4.108 4.346 3.781 4.294 3.443 4.241 3.1 4.182 2.76 4.122 2.43 4.057 2.107 3.992 1.797 3.921 1.502 3.848 1.221 3.773.954 3.694.707 3.611.478 3.527.276 3.439.11 3.347.016h45.216v10.993z"/>
  <path d="M355.384 327.867h-45.216l-3.347-.023-3.439-.1-3.527-.223-3.611-.377-3.694-.547-3.773-.74-3.848-.949-3.921-1.168-3.992-1.41-4.058-1.655-4.121-1.915-4.183-2.185-4.24-2.454-4.294-2.73-4.347-3.006-4.394-3.279-4.441-3.536-4.483-3.781-4.522-4.003-4.559-4.18-4.592-4.31-4.622-4.38-4.65-4.381-4.674-4.292-4.696-4.098-4.713-3.782-4.729-3.33-4.741-2.739-4.75-2.025-4.756-1.209-4.759-.324-4.759.584-4.756 1.453-4.75 2.243-4.741 2.925-4.729 3.479-4.713 3.893-4.696 4.171-4.674 4.335-4.65 4.396-4.622 4.374-4.592 4.285-4.559 4.142-4.522 3.95-4.483 3.718-4.441 3.468-4.395 3.206-4.346 2.929-4.294 2.653-4.241 2.376-4.182 2.107-4.122 1.835-4.057 1.581-3.992 1.332-3.921 1.096-3.848.88-3.773.672-3.694.486-3.611.319-3.527.172-3.439.062-3.347.009H0v-11.439h45.216l3.347-.006 3.439-.068 3.527-.201 3.611-.367 3.694-.56 3.773-.769 3.848-1 3.921-1.248 3.992-1.504 4.057-1.783 4.122-2.065 4.183-2.36 4.24-2.66 4.294-2.97 4.347-3.276 4.394-3.581 4.441-3.88 4.483-4.152 4.522-4.402 4.559-4.614 4.592-4.78 2.308-2.436 2.314-2.455 2.322-2.464 2.328-2.459 2.334-2.438 2.34-2.398 4.696-4.609 4.713-4.239 4.729-3.737 4.741-3.106 4.75-2.359 4.756-1.518 4.759-.607 4.759.336 4.756 1.262 4.75 2.124 4.741 2.9 4.729 3.563 4.713 4.103 4.696 4.51 2.34 2.364 2.334 2.414 2.328 2.445 2.322 2.459 2.315 2.457 2.307 2.443 4.592 4.811 4.559 4.659 4.522 4.458 4.483 4.221 4.441 3.954 4.395 3.665 4.346 3.358 4.294 3.056 4.241 2.75 4.182 2.445 4.122 2.151 4.057 1.867 3.992 1.59 3.921 1.325 3.848 1.079 3.773.844 3.694.632 3.611.432 3.527.26 3.439.113 3.347.021h45.216v11.439z"/>
  <path d="M355.384 344.968h-45.216l-3.347-.016-3.439-.062-3.527-.149-3.611-.265-3.694-.395-3.773-.554-3.848-.722-3.921-.899-3.992-1.1-4.058-1.302-4.121-1.511-4.183-1.738-4.24-1.959-4.294-2.183-4.347-2.414-4.394-2.628-4.441-2.834-4.483-3.025-4.522-3.196-4.559-3.335-4.592-3.431-4.622-3.478-4.65-3.473-4.674-3.385-4.696-3.212-4.713-2.947-4.729-2.587-4.741-2.125-4.75-1.569-4.756-.935-4.759-.25-4.759.451-4.756 1.125-4.75 1.739-4.741 2.27-4.729 2.703-4.713 3.037-4.696 3.276-4.674 3.425-4.65 3.487-4.622 3.477-4.592 3.413-4.559 3.306-4.522 3.155-4.483 2.977-4.441 2.78-4.395 2.57-4.346 2.351-4.294 2.118-4.241 1.897-4.182 1.671-4.122 1.446-4.057 1.242-3.992 1.035-3.921.839-3.848.667-3.773.497-3.694.347-3.611.22-3.527.113-3.439.038-3.347.007H0v-11.886h45.216l3.347-.009 3.439-.056 3.527-.157 3.611-.288 3.694-.449 3.773-.621 3.848-.815 3.921-1.026 3.992-1.242 4.057-1.481 4.122-1.724 4.183-1.975L94.97 321l4.294-2.496 4.347-2.759 4.394-3.016 4.441-3.268 4.483-3.501 4.522-3.714 4.559-3.899 4.592-4.037 4.622-4.118 4.65-4.132 4.674-4.068 4.696-3.908 4.713-3.643 4.729-3.262 4.741-2.753 4.75-2.119 4.756-1.378 4.759-.554 4.759.307 4.756 1.147 4.75 1.915 4.741 2.582 4.729 3.124 4.713 3.541 4.696 3.839 4.674 4.025 4.65 4.116 4.622 4.121 4.592 4.06 4.559 3.938 4.522 3.763 4.483 3.559 4.441 3.332 4.395 3.086 4.346 2.83 4.294 2.569 4.241 2.313 4.182 2.051 4.122 1.796 4.057 1.555 3.992 1.314 3.921 1.093 3.848.883 3.773.683 3.694.507 3.611.343 3.527.203 3.439.09 3.347.022h45.216v11.886z"/>
  <path d="M355.384 362.069h-45.216l-3.347-.005-3.439-.023-3.527-.069-3.611-.148-3.694-.239-3.773-.356-3.848-.479-3.921-.618-3.992-.776-4.058-.933-4.121-1.092-4.183-1.27-4.24-1.447-4.294-1.611-4.347-1.786-4.394-1.956-4.441-2.106-4.483-2.241-4.522-2.368-4.559-2.461-4.592-2.514-4.622-2.537-4.65-2.508-4.674-2.427-4.696-2.289-4.713-2.084-4.729-1.81-4.741-1.473-4.75-1.079-4.756-.638-4.759-.17-4.759.306-4.756.77-4.75 1.198-4.741 1.578-4.729 1.898-4.713 2.153-4.696 2.339-4.674 2.458-4.65 2.528-4.622 2.539-4.592 2.506-4.559 2.444-4.522 2.338-4.483 2.206-4.441 2.069-4.395 1.911-4.346 1.735-4.294 1.566-4.241 1.397-4.182 1.216-4.122 1.043-4.057.885-3.992.725-3.921.569-3.848.438-3.773.314-3.694.205-3.611.116-3.527.047-3.439.012-3.347.004H0v-12.332h45.216l3.347-.007 3.439-.029 3.527-.095 3.611-.189 3.694-.309 3.773-.443 3.848-.601 3.921-.771 3.992-.943 4.057-1.14 4.122-1.341 4.183-1.539 4.24-1.755 4.294-1.969 4.347-2.174 4.394-2.387 4.441-2.583 4.483-2.761 4.522-2.926 4.559-3.057 4.592-3.161 4.622-3.212 4.65-3.213 4.674-3.147 4.696-3.013 4.713-2.789 4.729-2.476 4.741-2.074 4.75-1.584 4.756-1.022 4.759-.409 4.759.227 4.756.849 4.75 1.428 4.741 1.94 4.729 2.367 4.713 2.704 4.696 2.954 4.674 3.113 4.65 3.194 4.622 3.212 4.592 3.175 4.559 3.087 4.522 2.96 4.483 2.806 4.441 2.631 4.395 2.443 4.346 2.233 4.294 2.026 4.241 1.818 4.182 1.601 4.122 1.398 4.057 1.202 3.992 1.003 3.921.823 3.848.658 3.773.493 3.694.354 3.611.231 3.527.126 3.439.049 3.347.014h45.216v12.332z"/>
  <path d="M355.384 379.17h-52.002l-3.527-.022-3.611-.047-3.694-.102-3.773-.18-3.848-.263-3.921-.361-3.992-.472-4.058-.585-4.121-.7-4.183-.834-4.24-.966-4.294-1.088-4.347-1.204-4.394-1.327-4.441-1.441-4.483-1.533-4.522-1.605-4.559-1.663-4.592-1.703-4.622-1.708-4.65-1.675-4.674-1.604-4.696-1.501-4.713-1.357-4.729-1.172-4.741-.947-4.75-.688-4.756-.405-4.759-.108-4.759.194-4.756.489-4.75.766-4.741 1.016-4.729 1.232-4.713 1.405-4.696 1.536-4.674 1.63-4.65 1.692-4.622 1.714-4.592 1.698-4.559 1.651-4.522 1.588-4.483 1.512-4.441 1.412-4.395 1.293-4.346 1.171-4.294 1.054-4.241.929-4.182.793-4.122.662-4.057.55-3.992.437-3.921.325-3.848.235-3.773.151-3.694.08-3.611.032-3.527.014H0v-12.779h48.563l3.439-.012 3.527-.034 3.611-.09 3.694-.173 3.773-.267 3.848-.384 3.921-.507 3.992-.642 4.057-.797 4.122-.951 4.183-1.102 4.24-1.266 4.294-1.436 4.347-1.591 4.394-1.74 4.441-1.894 4.483-2.027 4.522-2.135 4.559-2.227 4.592-2.295 4.622-2.317 4.65-2.298 4.674-2.237 4.696-2.119 4.713-1.94 4.729-1.711 4.741-1.422 4.75-1.078 4.756-.69 4.759-.275 4.759.152 4.756.573 4.75.969 4.741 1.328 4.729 1.631 4.713 1.878 4.696 2.07 4.674 2.206 4.65 2.282 4.622 2.31 4.592 2.302 4.559 2.247 4.522 2.158 4.483 2.057 4.441 1.931 4.395 1.783 4.346 1.632 4.294 1.481 4.241 1.317 4.182 1.148 4.122.996 4.057.845 3.992.689 3.921.548 3.848.425 3.773.306 3.694.203 3.611.119 3.527.051 3.439.016 3.347.004h45.216v12.779z"/>
  <path d="M355.384 396.27h-55.529l-3.611-.006-3.694-.018-3.773-.05-3.848-.093-3.921-.155-3.992-.229-4.058-.303-4.121-.379-4.183-.47-4.24-.56-4.294-.643-4.347-.72-4.394-.806-4.441-.887-4.483-.952-4.522-1.003-4.559-1.032-4.592-1.047-4.622-1.052-4.65-1.036-4.674-.992-4.696-.921-4.713-.825-4.729-.706-4.741-.567-4.75-.41-4.756-.24-4.759-.064-4.759.115-4.756.29-4.75.457-4.741.61-4.729.744-4.713.856-4.696.945-4.674 1.009-4.65 1.045-4.622 1.055-4.592 1.045-4.559 1.028-4.522.992-4.483.937-4.441.866-4.395.781-4.346.698-4.294.62-4.241.534-4.182.441-4.122.354-4.057.279-3.992.205-3.921.131-3.848.078-3.773.035-3.694.013-3.611.003H0v-13.225h52.002l3.527-.008 3.611-.021 3.694-.059 3.773-.117 3.848-.196 3.921-.279 3.992-.373 4.057-.483 4.122-.593 4.183-.7 4.24-.825 4.294-.95 4.347-1.064 4.394-1.166 4.441-1.268 4.483-1.367 4.522-1.447 4.559-1.5 4.592-1.528 4.622-1.542 4.65-1.529 4.674-1.478 4.696-1.388 4.713-1.259 4.729-1.099 4.741-.907 4.75-.684 4.756-.437 4.759-.174 4.759.096 4.756.362 4.75.615 4.741.846 4.729 1.045 4.713 1.215 4.696 1.352 4.674 1.454 4.65 1.515 4.622 1.54 4.592 1.53 4.559 1.508 4.522 1.462 4.483 1.39 4.441 1.296 4.395 1.193 4.346 1.093 4.294.984 4.241.863 4.182.736 4.122.624 4.057.518 3.992.407 3.921.308 3.848.224 3.773.143 3.694.077 3.611.031 3.527.014h52.002v13.225z"/>
  <path d="M355.384 413.371h-66.607l-3.848-.016-3.921-.026-3.992-.059-4.058-.099-4.121-.143-4.183-.202-4.24-.262-4.294-.315-4.347-.364-4.394-.417-4.441-.47-4.483-.516-4.522-.551-4.559-.572-4.592-.58-4.622-.582-4.65-.577-4.674-.556-4.696-.518-4.713-.465-4.729-.399-4.741-.32-4.75-.232-4.756-.136-4.759-.036-4.759.065-4.756.164-4.75.258-4.741.345-4.729.42-4.713.483-4.696.531-4.674.564-4.65.581-4.622.583-4.592.58-4.559.568-4.522.543-4.483.505-4.441.456-4.395.4-4.346.351-4.294.3-4.241.243-4.182.183-4.122.128-4.057.086-3.992.046-3.921.02-3.848.01H0v-13.672h59.14l3.694-.01 3.773-.022 3.848-.056 3.921-.1 3.992-.163 4.057-.235 4.122-.307 4.183-.378 4.24-.463 4.294-.548 4.347-.626 4.394-.694 4.441-.763 4.483-.834 4.522-.891 4.559-.929 4.592-.947 4.622-.946 4.65-.931 4.674-.9 4.696-.847 4.713-.769 4.729-.669 4.741-.55 4.75-.412 4.756-.262 4.759-.104 4.759.058 4.756.217 4.75.369 4.741.512 4.729.636 4.713.741 4.696.826 4.674.886 4.65.922 4.622.941 4.592.947 4.559.935 4.522.901 4.483.851 4.441.783 4.395.713 4.346.646 4.294.571 4.241.489 4.182.403 4.122.328 4.057.259 3.992.185 3.921.119 3.848.071 3.773.032 3.694.012 3.611.003h55.529v13.672z"/>
  <path d="M355.384 430.472h-82.426l-4.121-.03-4.183-.037-4.24-.066-4.294-.096-4.347-.123-4.394-.156-4.441-.192-4.483-.224-4.522-.249-4.559-.266-4.592-.275-4.622-.277-4.65-.276-4.674-.269-4.696-.254-4.713-.23-4.729-.199-4.741-.16-4.75-.116-4.756-.068-4.759-.018-4.759.032-4.756.083-4.75.129-4.741.172-4.729.209-4.713.238-4.696.259-4.674.273-4.65.276-4.622.278-4.592.274-4.559.262-4.522.243-4.483.215-4.441.182-4.395.145-4.346.116-4.294.087-4.241.056-4.182.029-4.122.023H0v-14.119h66.607l3.848-.006 3.921-.011 3.992-.03 4.057-.063 4.122-.102 4.183-.144 4.24-.2 4.294-.256 4.347-.307 4.394-.35 4.441-.394 4.483-.441 4.522-.48 4.559-.507 4.592-.522 4.622-.525 4.65-.515 4.674-.497 4.696-.469 4.713-.429 4.729-.374 4.741-.308 4.75-.23 4.756-.147 4.759-.059 4.759.033 4.756.121 4.75.208 4.741.286 4.729.355 4.713.414 4.696.458 4.674.49 4.65.51 4.622.522 4.592.523 4.559.512 4.522.488 4.483.453 4.441.407 4.395.362 4.346.32 4.294.272 4.241.218 4.182.16 4.122.114 4.057.076 3.992.039 3.921.017 3.848.008h66.607v14.119z"/>
  <path d="M355.384 447.572H256.12l-4.347-.018-4.394-.02-4.441-.031-4.483-.048-4.522-.065-4.559-.077-4.592-.086-4.622-.09-4.65-.094-4.674-.096-4.696-.094-4.713-.088-4.729-.079-4.741-.064-4.75-.046-4.756-.028-4.759-.008-4.759.014-4.756.033-4.75.052-4.741.069-4.729.081-4.713.091-4.696.095-4.674.096-4.65.093-4.622.09-4.592.083-4.559.074-4.522.06-4.483.043-4.441.027-4.395.017-4.346.014H0v-14.565h82.425l4.122-.013 4.183-.019 4.24-.037 4.294-.066 4.347-.094 4.394-.12 4.441-.146 4.483-.179 4.522-.208 4.559-.228 4.592-.242 4.622-.248 4.65-.247 4.674-.239 4.696-.226 4.713-.208 4.729-.183 4.741-.152 4.75-.114 4.756-.073 4.759-.029 4.759.016 4.756.061 4.75.102 4.741.142 4.729.174 4.713.202 4.696.221 4.674.235 4.65.245 4.622.248 4.592.243 4.559.233 4.522.214 4.483.188 4.441.156 4.395.127 4.346.102 4.294.075 4.241.046 4.182.023 4.121.018h82.426v14.565zm0 17.101H238.455l-4.522-.001-4.559-.002-4.592-.004-4.622-.007-4.65-.01-4.674-.012-4.696-.013-4.713-.013-4.729-.012-4.741-.011-4.75-.009-4.756-.005-4.759-.001-4.759.002-4.756.007-4.75.009-4.741.012-4.729.012-4.713.013-4.696.013-4.674.011-4.65.009-4.622.006-4.592.004-4.559.002H0v-15.012h99.264l4.347-.008 4.394-.01 4.441-.019 4.483-.03 4.522-.044 4.559-.059 4.592-.069 4.622-.076 4.65-.081 4.674-.08 4.696-.078 4.713-.076 4.729-.068 4.741-.058 4.75-.045 4.756-.028 4.759-.012 4.759.006 4.756.024 4.75.04 4.741.055 4.729.066 4.713.073 4.696.078 4.674.08 4.65.08 4.622.078 4.592.072 4.559.062 4.522.049 4.483.033 4.441.022 4.395.013 4.346.01h99.264v15.012zm0 17.101H0v-15.459h126.01l4.592-.002 4.622-.004 4.65-.005 4.674-.008 4.696-.009 4.713-.01 4.729-.01 4.741-.009 4.75-.007 4.756-.004 4.759-.002 4.759.001 4.756.004 4.75.006 4.741.008 4.729.01 4.713.01 4.696.009 4.674.009 4.65.006 4.622.004 4.592.002 4.559.001h121.451v15.459zm0 17.101H0V482.97h355.384v15.905zm0 17.1H0v-16.351h355.384v16.351zm0 17.101H0v-16.798h355.384v16.798z"/>
</svg>
