<?xml version="1.0" standalone="no"?>
<!DOCTYPE svg PUBLIC "-//W3C//DTD SVG 20010904//EN"
 "http://www.w3.org/TR/2001/REC-SVG-20010904/DTD/svg10.dtd">
<svg version="1.0" xmlns="http://www.w3.org/2000/svg"
 width="1000.000000pt" height="1000.000000pt" viewBox="0 0 1000.000000 1000.000000"
 preserveAspectRatio="xMidYMid meet">
<metadata>
Created by potrace 1.11, written by Peter Selinger 2001-2013
</metadata>
<g transform="translate(0.000000,1000.000000) scale(0.100000,-0.100000)"
fill="#000000" stroke="none">
<path d="M0 5000 l0 -5000 5000 0 5000 0 0 5000 0 5000 -5000 0 -5000 0 0
-5000z m9300 0 l0 -4300 -4300 0 -4300 0 0 4300 0 4300 4300 0 4300 0 0 -4300z"/>
<path d="M1217 4693 c-4 -3 -7 -784 -7 -1735 l0 -1728 420 0 420 0 0 695 0
695 685 0 685 0 0 -695 0 -695 415 0 415 0 0 1735 0 1735 -415 0 -415 0 -2
-697 -3 -698 -682 -3 -683 -2 0 700 0 700 -413 0 c-228 0 -417 -3 -420 -7z"/>
<path d="M4648 4694 c-5 -4 -8 -785 -8 -1736 l0 -1728 688 0 c400 0 735 4 802
11 841 76 1378 588 1485 1414 20 158 20 463 0 620 -47 358 -166 642 -372 887
-120 142 -273 259 -458 348 -179 87 -348 137 -580 171 -92 13 -1545 26 -1557
13z m1564 -747 c286 -76 461 -256 537 -553 76 -293 61 -719 -34 -969 -93 -250
-270 -396 -549 -457 -74 -16 -145 -21 -388 -25 l-298 -6 0 1023 0 1022 318 -4
c303 -5 321 -6 414 -31z"/>
<path d="M8004 2027 c-363 -138 -382 -642 -31 -802 81 -37 174 -51 249 -37
189 35 336 182 369 369 31 176 -76 371 -248 454 -62 30 -78 33 -173 36 -90 3
-114 0 -166 -20z"/>
</g>
</svg>
